<?xml version="1.0" encoding="UTF-8" standalone="no"?>
<!-- Created with Inkscape (http://www.inkscape.org/) -->

<svg
   xmlns:dc="http://purl.org/dc/elements/1.1/"
   xmlns:cc="http://creativecommons.org/ns#"
   xmlns:rdf="http://www.w3.org/1999/02/22-rdf-syntax-ns#"
   xmlns:svg="http://www.w3.org/2000/svg"
   xmlns="http://www.w3.org/2000/svg"
   xmlns:sodipodi="http://sodipodi.sourceforge.net/DTD/sodipodi-0.dtd"
   xmlns:inkscape="http://www.inkscape.org/namespaces/inkscape"
   width="210mm"
   height="297mm"
   viewBox="0 0 210 297"
   version="1.1"
   id="svg8"
   inkscape:version="0.92.3 (2405546, 2018-03-11)"
   sodipodi:docname="CNS.svg">
  <defs
     id="defs2">
    <marker
       inkscape:stockid="Arrow1Mend"
       orient="auto"
       refY="0.0"
       refX="0.0"
       id="marker4932"
       style="overflow:visible;"
       inkscape:isstock="true">
      <path
         id="path4633"
         d="M 0.0,0.0 L 5.0,-5.0 L -12.5,0.0 L 5.0,5.0 L 0.0,0.0 z "
         style="fill-rule:evenodd;stroke:#000000;stroke-width:1pt;stroke-opacity:1;fill:#000000;fill-opacity:1"
         transform="scale(0.4) rotate(180) translate(10,0)" />
    </marker>
    <marker
       inkscape:stockid="Arrow1Mstart"
       orient="auto"
       refY="0.0"
       refX="0.0"
       id="marker4925"
       style="overflow:visible"
       inkscape:isstock="true">
      <path
         id="path4630"
         d="M 0.0,0.0 L 5.0,-5.0 L -12.5,0.0 L 5.0,5.0 L 0.0,0.0 z "
         style="fill-rule:evenodd;stroke:#000000;stroke-width:1pt;stroke-opacity:1;fill:#000000;fill-opacity:1"
         transform="scale(0.4) translate(10,0)" />
    </marker>
    <marker
       inkscape:stockid="Arrow1Lend"
       orient="auto"
       refY="0.0"
       refX="0.0"
       id="marker4894"
       style="overflow:visible;"
       inkscape:isstock="true">
      <path
         id="path4627"
         d="M 0.0,0.0 L 5.0,-5.0 L -12.5,0.0 L 5.0,5.0 L 0.0,0.0 z "
         style="fill-rule:evenodd;stroke:#000000;stroke-width:1pt;stroke-opacity:1;fill:#000000;fill-opacity:1"
         transform="scale(0.8) rotate(180) translate(12.5,0)" />
    </marker>
    <marker
       inkscape:stockid="Arrow1Lstart"
       orient="auto"
       refY="0.0"
       refX="0.0"
       id="marker4887"
       style="overflow:visible"
       inkscape:isstock="true">
      <path
         id="path4624"
         d="M 0.0,0.0 L 5.0,-5.0 L -12.5,0.0 L 5.0,5.0 L 0.0,0.0 z "
         style="fill-rule:evenodd;stroke:#000000;stroke-width:1pt;stroke-opacity:1;fill:#000000;fill-opacity:1"
         transform="scale(0.8) translate(12.5,0)" />
    </marker>
    <marker
       inkscape:isstock="true"
       style="overflow:visible;"
       id="marker4620"
       refX="0.0"
       refY="0.0"
       orient="auto"
       inkscape:stockid="Arrow1Mend">
      <path
         transform="scale(0.4) rotate(180) translate(10,0)"
         style="fill-rule:evenodd;stroke:#000000;stroke-width:1pt;stroke-opacity:1;fill:#000000;fill-opacity:1"
         d="M 0.0,0.0 L 5.0,-5.0 L -12.5,0.0 L 5.0,5.0 L 0.0,0.0 z "
         id="path4618" />
    </marker>
    <marker
       inkscape:stockid="Arrow1Mstart"
       orient="auto"
       refY="0.0"
       refX="0.0"
       id="Arrow1Mstart"
       style="overflow:visible"
       inkscape:isstock="true">
      <path
         id="path4582"
         d="M 0.0,0.0 L 5.0,-5.0 L -12.5,0.0 L 5.0,5.0 L 0.0,0.0 z "
         style="fill-rule:evenodd;stroke:#000000;stroke-width:1pt;stroke-opacity:1;fill:#000000;fill-opacity:1"
         transform="scale(0.4) translate(10,0)" />
    </marker>
    <marker
       inkscape:stockid="Arrow1Mend"
       orient="auto"
       refY="0.0"
       refX="0.0"
       id="Arrow1Mend"
       style="overflow:visible;"
       inkscape:isstock="true"
       inkscape:collect="always">
      <path
         id="path4585"
         d="M 0.0,0.0 L 5.0,-5.0 L -12.5,0.0 L 5.0,5.0 L 0.0,0.0 z "
         style="fill-rule:evenodd;stroke:#000000;stroke-width:1pt;stroke-opacity:1;fill:#000000;fill-opacity:1"
         transform="scale(0.4) rotate(180) translate(10,0)" />
    </marker>
    <marker
       inkscape:stockid="Arrow1Lend"
       orient="auto"
       refY="0.0"
       refX="0.0"
       id="marker5184"
       style="overflow:visible;"
       inkscape:isstock="true">
      <path
         id="path5182"
         d="M 0.0,0.0 L 5.0,-5.0 L -12.5,0.0 L 5.0,5.0 L 0.0,0.0 z "
         style="fill-rule:evenodd;stroke:#000000;stroke-width:1pt;stroke-opacity:1;fill:#000000;fill-opacity:1"
         transform="scale(0.8) rotate(180) translate(12.5,0)" />
    </marker>
    <marker
       inkscape:stockid="Arrow2Lend"
       orient="auto"
       refY="0.0"
       refX="0.0"
       id="marker5120"
       style="overflow:visible;"
       inkscape:isstock="true">
      <path
         id="path5118"
         style="fill-rule:evenodd;stroke-width:0.625;stroke-linejoin:round;stroke:#000000;stroke-opacity:1;fill:#000000;fill-opacity:1"
         d="M 8.7185878,4.0337352 L -2.2072895,0.016013256 L 8.7185884,-4.0017078 C 6.9730900,-1.6296469 6.9831476,1.6157441 8.7185878,4.0337352 z "
         transform="scale(1.1) rotate(180) translate(1,0)" />
    </marker>
    <marker
       inkscape:stockid="Arrow2Lend"
       orient="auto"
       refY="0.0"
       refX="0.0"
       id="marker5062"
       style="overflow:visible;"
       inkscape:isstock="true">
      <path
         id="path5060"
         style="fill-rule:evenodd;stroke-width:0.625;stroke-linejoin:round;stroke:#000000;stroke-opacity:1;fill:#000000;fill-opacity:1"
         d="M 8.7185878,4.0337352 L -2.2072895,0.016013256 L 8.7185884,-4.0017078 C 6.9730900,-1.6296469 6.9831476,1.6157441 8.7185878,4.0337352 z "
         transform="scale(1.1) rotate(180) translate(1,0)" />
    </marker>
    <marker
       inkscape:stockid="Arrow1Lstart"
       orient="auto"
       refY="0.0"
       refX="0.0"
       id="Arrow1Lstart"
       style="overflow:visible"
       inkscape:isstock="true">
      <path
         id="path4576"
         d="M 0.0,0.0 L 5.0,-5.0 L -12.5,0.0 L 5.0,5.0 L 0.0,0.0 z "
         style="fill-rule:evenodd;stroke:#000000;stroke-width:1pt;stroke-opacity:1;fill:#000000;fill-opacity:1"
         transform="scale(0.8) translate(12.5,0)" />
    </marker>
    <marker
       inkscape:stockid="Arrow2Lend"
       orient="auto"
       refY="0.0"
       refX="0.0"
       id="Arrow2Lend"
       style="overflow:visible;"
       inkscape:isstock="true">
      <path
         id="path4597"
         style="fill-rule:evenodd;stroke-width:0.625;stroke-linejoin:round;stroke:#000000;stroke-opacity:1;fill:#000000;fill-opacity:1"
         d="M 8.7185878,4.0337352 L -2.2072895,0.016013256 L 8.7185884,-4.0017078 C 6.9730900,-1.6296469 6.9831476,1.6157441 8.7185878,4.0337352 z "
         transform="scale(1.1) rotate(180) translate(1,0)" />
    </marker>
    <marker
       inkscape:stockid="Arrow1Lend"
       orient="auto"
       refY="0.0"
       refX="0.0"
       id="marker4892"
       style="overflow:visible;"
       inkscape:isstock="true">
      <path
         id="path4890"
         d="M 0.0,0.0 L 5.0,-5.0 L -12.5,0.0 L 5.0,5.0 L 0.0,0.0 z "
         style="fill-rule:evenodd;stroke:#000000;stroke-width:1pt;stroke-opacity:1;fill:#000000;fill-opacity:1"
         transform="scale(0.8) rotate(180) translate(12.5,0)" />
    </marker>
    <marker
       inkscape:stockid="Arrow1Lend"
       orient="auto"
       refY="0.0"
       refX="0.0"
       id="Arrow1Lend"
       style="overflow:visible;"
       inkscape:isstock="true">
      <path
         id="path4579"
         d="M 0.0,0.0 L 5.0,-5.0 L -12.5,0.0 L 5.0,5.0 L 0.0,0.0 z "
         style="fill-rule:evenodd;stroke:#000000;stroke-width:1pt;stroke-opacity:1;fill:#000000;fill-opacity:1"
         transform="scale(0.8) rotate(180) translate(12.5,0)" />
    </marker>
    <marker
       inkscape:stockid="Arrow2Mstart"
       orient="auto"
       refY="0.0"
       refX="0.0"
       id="Arrow2Mstart"
       style="overflow:visible"
       inkscape:isstock="true">
      <path
         id="path4600"
         style="fill-rule:evenodd;stroke-width:0.625;stroke-linejoin:round;stroke:#000000;stroke-opacity:1;fill:#000000;fill-opacity:1"
         d="M 8.7185878,4.0337352 L -2.2072895,0.016013256 L 8.7185884,-4.0017078 C 6.9730900,-1.6296469 6.9831476,1.6157441 8.7185878,4.0337352 z "
         transform="scale(0.6) translate(0,0)" />
    </marker>
    <marker
       inkscape:stockid="Arrow1Mend"
       orient="auto"
       refY="0"
       refX="0"
       id="Arrow1Mend-8"
       style="overflow:visible"
       inkscape:isstock="true">
      <path
         inkscape:connector-curvature="0"
         id="path4585-8"
         d="M 0,0 5,-5 -12.5,0 5,5 Z"
         style="fill:#000000;fill-opacity:1;fill-rule:evenodd;stroke:#000000;stroke-width:1.00000003pt;stroke-opacity:1"
         transform="matrix(-0.4,0,0,-0.4,-4,0)" />
    </marker>
    <marker
       inkscape:stockid="Arrow1Mstart"
       orient="auto"
       refY="0"
       refX="0"
       id="marker4925-8"
       style="overflow:visible"
       inkscape:isstock="true">
      <path
         inkscape:connector-curvature="0"
         id="path4630-4"
         d="M 0,0 5,-5 -12.5,0 5,5 Z"
         style="fill:#000000;fill-opacity:1;fill-rule:evenodd;stroke:#000000;stroke-width:1.00000003pt;stroke-opacity:1"
         transform="matrix(0.4,0,0,0.4,4,0)" />
    </marker>
    <marker
       inkscape:stockid="Arrow1Mend"
       orient="auto"
       refY="0"
       refX="0"
       id="marker4932-8"
       style="overflow:visible"
       inkscape:isstock="true">
      <path
         inkscape:connector-curvature="0"
         id="path4633-8"
         d="M 0,0 5,-5 -12.5,0 5,5 Z"
         style="fill:#000000;fill-opacity:1;fill-rule:evenodd;stroke:#000000;stroke-width:1.00000003pt;stroke-opacity:1"
         transform="matrix(-0.4,0,0,-0.4,-4,0)" />
    </marker>
    <marker
       inkscape:stockid="Arrow1Mstart"
       orient="auto"
       refY="0"
       refX="0"
       id="marker4925-8-3"
       style="overflow:visible"
       inkscape:isstock="true">
      <path
         inkscape:connector-curvature="0"
         id="path4630-4-8"
         d="M 0,0 5,-5 -12.5,0 5,5 Z"
         style="fill:#000000;fill-opacity:1;fill-rule:evenodd;stroke:#000000;stroke-width:1.00000003pt;stroke-opacity:1"
         transform="matrix(0.4,0,0,0.4,4,0)" />
    </marker>
    <marker
       inkscape:stockid="Arrow1Mend"
       orient="auto"
       refY="0"
       refX="0"
       id="marker4932-8-7"
       style="overflow:visible"
       inkscape:isstock="true">
      <path
         inkscape:connector-curvature="0"
         id="path4633-8-5"
         d="M 0,0 5,-5 -12.5,0 5,5 Z"
         style="fill:#000000;fill-opacity:1;fill-rule:evenodd;stroke:#000000;stroke-width:1.00000003pt;stroke-opacity:1"
         transform="matrix(-0.4,0,0,-0.4,-4,0)" />
    </marker>
    <marker
       inkscape:stockid="Arrow1Mend"
       orient="auto"
       refY="0"
       refX="0"
       id="Arrow1Mend-2"
       style="overflow:visible"
       inkscape:isstock="true"
       inkscape:collect="always">
      <path
         inkscape:connector-curvature="0"
         id="path4585-2"
         d="M 0,0 5,-5 -12.5,0 5,5 Z"
         style="fill:#000000;fill-opacity:1;fill-rule:evenodd;stroke:#000000;stroke-width:1.00000003pt;stroke-opacity:1"
         transform="matrix(-0.4,0,0,-0.4,-4,0)" />
    </marker>
  </defs>
  <sodipodi:namedview
     id="base"
     pagecolor="#ffffff"
     bordercolor="#666666"
     borderopacity="1.0"
     inkscape:pageopacity="0.0"
     inkscape:pageshadow="2"
     inkscape:zoom="1.4"
     inkscape:cx="450.35805"
     inkscape:cy="290.28561"
     inkscape:document-units="mm"
     inkscape:current-layer="layer1"
     showgrid="false"
     inkscape:snap-nodes="true"
     inkscape:snap-global="false"
     inkscape:window-width="3066"
     inkscape:window-height="1689"
     inkscape:window-x="134"
     inkscape:window-y="55"
     inkscape:window-maximized="1" />
  <metadata
     id="metadata5">
    <rdf:RDF>
      <cc:Work
         rdf:about="">
        <dc:format>image/svg+xml</dc:format>
        <dc:type
           rdf:resource="http://purl.org/dc/dcmitype/StillImage" />
        <dc:title />
      </cc:Work>
    </rdf:RDF>
  </metadata>
  <g
     inkscape:label="Ebene 1"
     inkscape:groupmode="layer"
     id="layer1">
    <ellipse
       id="path14"
       cx="32.88393"
       cy="35.345982"
       rx="2.0788691"
       ry="2.1733632"
       style="fill:#ff2a2a;stroke-width:0.26458332"
       inkscape:export-xdpi="5000"
       inkscape:export-ydpi="5000"
       inkscape:export-filename="/home/max/ownCloud/SS18/BA/Vortrag/Bilder/CNS.png" />
    <ellipse
       id="path14-5"
       cx="20.410713"
       cy="52.071426"
       rx="2.0788691"
       ry="2.1733632"
       style="fill:#ff2a2a;stroke-width:0.26458332"
       inkscape:export-xdpi="5000"
       inkscape:export-ydpi="5000"
       inkscape:export-filename="/home/max/ownCloud/SS18/BA/Vortrag/Bilder/CNS.png" />
    <ellipse
       id="path14-35"
       cx="34.206841"
       cy="62.276783"
       rx="2.0788691"
       ry="2.1733632"
       style="fill:#ff2a2a;stroke-width:0.26458332"
       inkscape:export-xdpi="5000"
       inkscape:export-ydpi="5000"
       inkscape:export-filename="/home/max/ownCloud/SS18/BA/Vortrag/Bilder/CNS.png" />
    <ellipse
       id="path14-62"
       cx="35.718754"
       cy="77.017853"
       rx="2.0788691"
       ry="2.1733632"
       style="fill:#ff2a2a;stroke-width:0.26458332"
       inkscape:export-xdpi="5000"
       inkscape:export-ydpi="5000"
       inkscape:export-filename="/home/max/ownCloud/SS18/BA/Vortrag/Bilder/CNS.png" />
    <path
       id="path12"
       d="m 29.730149,44.197566 c 0.761662,3.247559 1.382858,6.527313 1.928977,9.817433 0.51027,3.447365 0.743778,6.928816 0.935035,10.406189 0.07709,2.422896 5.29e-4,4.863889 -0.526077,7.236291 -0.190079,0.587814 -0.214876,0.778428 -0.528891,1.30896 -1.054193,1.781077 -3.309464,2.559521 -4.983925,3.464644 -2.181118,0.633744 -4.493401,0.909167 -6.764368,0.751221 -0.424252,-0.02951 -0.844707,-0.09955 -1.26706,-0.149333 -0.401344,-0.110977 -0.811866,-0.19294 -1.204033,-0.332931 -1.529472,-0.545975 -2.934649,-1.611667 -3.836727,-2.969368 -0.236176,-0.355462 -0.406863,-0.750329 -0.610295,-1.125495 -0.697655,-1.634453 -0.981974,-3.407675 -0.765934,-5.177205 0.139231,-1.140402 0.307786,-1.514616 0.644403,-2.604802 0.691226,-1.693913 1.498554,-3.413821 2.768162,-4.761698 0.20209,-0.214548 0.428904,-0.404384 0.643356,-0.606576 1.363038,-1.027597 2.826184,-2.026415 4.478049,-2.50358 0.763769,-0.220626 1.549765,-0.290833 2.337299,-0.361958 1.774383,-0.118698 3.552537,-0.05833 5.324951,0.05744 1.970437,0.137834 3.909661,0.505425 5.841143,0.90043 2.029751,0.426431 4.040939,0.917106 6.095288,1.213826 0.789268,0.08347 1.582568,0.200186 2.378999,0.175987 0.694692,-0.02111 1.354267,-0.164602 2.022951,-0.338375 0.20279,-0.07565 0.409525,-0.141473 0.608367,-0.226965 0.190259,-0.0818 0.734917,-0.381069 0.557472,-0.274286 -0.615228,0.370234 -1.232543,0.739169 -1.872171,1.065446 -0.193881,0.0989 0.363445,-0.2412 0.530299,-0.380953 0.552665,-0.462899 0.611844,-0.607684 1.067933,-1.194223 1.510622,-2.517674 1.951098,-5.445969 2.292022,-8.312161 0.291584,-2.553139 0.138363,-5.140012 -0.366565,-7.657269 -0.09904,-0.493744 -0.228973,-0.980786 -0.343461,-1.471178 -0.788016,-2.91288 -2.121786,-5.624663 -3.635856,-8.220123 -1.190106,-2.021443 -2.588382,-3.894934 -4.102944,-5.681044 -0.979554,-1.12248 -2.160667,-2.024961 -3.62939,-2.382532 -0.316534,-0.07706 -0.641922,-0.111644 -0.962882,-0.167466 -1.574377,-0.145627 -3.159271,0.170525 -4.610431,0.788573 -0.407646,0.173616 -1.198346,1.033628 -1.190818,0.590613 0.0076,-0.450306 0.794403,-0.424569 1.191604,-0.636854 -1.011643,0.709586 -1.957282,1.509476 -2.858379,2.353828 -0.540395,0.506367 -0.891897,0.842007 -1.330694,1.430911 -0.165047,0.221507 -0.301886,0.462696 -0.452829,0.694042 -0.691746,1.224434 -0.850139,2.62313 -0.968406,3.999175 -0.109966,2.149435 0.26609,4.277796 0.66495,6.3799 0.296879,1.538486 0.674618,3.072625 1.281265,4.52197 0.28902,0.690502 0.514353,1.068829 0.868238,1.722887 0.810998,1.472803 1.92908,2.742227 2.962926,4.059246 1.079495,1.430046 1.984745,2.977499 2.842604,4.54719 0.592362,1.020304 1.173731,2.051748 1.823561,3.037353 0.267737,0.40608 0.882206,1.252857 1.161068,1.641057 1.359062,1.827633 2.648681,3.705013 3.978678,5.553614 1.444733,2.018925 2.844892,4.065884 4.195527,6.148822 1.167508,1.772068 2.114505,3.662537 2.901412,5.62923 0.438952,1.149352 0.909439,2.321245 1.069563,3.551351 0.02474,0.190058 0.02619,0.382429 0.0393,0.573643 0.0092,1.012317 -0.387425,1.887236 -1.174467,2.536973 -0.195837,0.161671 -0.418603,0.287629 -0.627907,0.431443 -1.067072,0.568476 -2.101778,1.202394 -3.201217,1.705427 -0.321141,0.146934 -0.684541,0.179319 -1.033717,0.232209 -1.885389,0.285581 -3.642349,-0.06193 -5.479497,-0.452689 -1.910204,-0.484248 -3.779697,-1.162865 -5.550958,-2.029568 -1.199359,-0.586862 -1.5636,-0.84115 -2.716268,-1.53538 -2.475086,-1.574435 -4.788491,-3.41009 -6.887887,-5.459838 -0.41794,-0.408054 -0.81484,-0.837115 -1.22226,-1.255676 C 18.286175,72.191845 16.375756,69.699348 14.479661,67.205042 13.06988,65.313398 11.629202,63.444588 10.248729,61.531282 9.2872741,60.119373 8.1583682,58.833596 7.1711809,57.441345 6.351657,56.156457 5.6462998,54.785148 5.2820704,53.296624 5.0245372,52.244143 5.0410694,51.950847 4.951428,50.884536 c 0.060058,-1.517089 0.122876,-3.441149 1.2197932,-4.638421 0.2111161,-0.23043 0.4823341,-0.397525 0.7235013,-0.596288 1.0878992,-0.595964 2.1444376,-1.253144 3.2636975,-1.78789 0.435123,-0.207886 1.861006,-0.427512 2.29287,-0.476105 1.542654,-0.173582 3.10036,-0.115152 4.648395,-0.09433 0.603397,0.0055 1.206788,0.01169 1.810191,0.01654 1.13907,0.0091 2.587492,0.02609 3.727221,-0.0026 1.663335,-0.04185 3.326306,-0.163033 4.986961,-0.261239 2.391172,-0.133741 4.814462,-0.159117 7.192409,0.177322 0.433523,0.06134 0.862479,0.151487 1.293718,0.227229 0,0 -2.233099,1.565225 -2.233099,1.565225 v 0 c -0.427295,-0.07141 -0.852565,-0.156229 -1.281886,-0.214223 -2.367049,-0.319741 -4.773197,-0.288904 -7.151698,-0.152154 -1.656935,0.09172 -3.315206,0.200766 -4.974646,0.235598 -1.095103,0.02299 -2.638707,0.0081 -3.732589,0.0013 -0.605671,-0.0037 -1.211338,-0.0081 -1.817006,-0.01209 -1.550493,-0.0085 -3.109928,-0.0512 -4.651518,0.156908 -0.4070012,0.05494 -0.8124878,0.12668 -1.211739,0.222944 -0.3565337,0.08597 -1.2506354,0.63102 -1.0518254,0.322831 0.3133439,-0.485735 0.9690571,-0.63042 1.4535859,-0.945629 -0.2501101,0.172191 -0.5291505,0.308526 -0.7503303,0.516575 -1.1560603,1.08743 -1.2394991,3.015507 -1.3270394,4.476859 0.02797,0.389887 0.034247,0.781941 0.083909,1.169662 0.24394,1.904457 1.0215504,3.658748 2.0822493,5.24529 1.0067749,1.377463 2.1178409,2.677539 3.0721499,4.093813 1.365866,1.919312 2.798875,3.789524 4.196874,5.685367 1.882532,2.489478 3.776565,4.978665 5.939899,7.23541 0.403915,0.415369 0.797156,0.84139 1.211744,1.246108 2.088622,2.038895 4.399566,3.853402 6.872057,5.402924 0.453322,0.268575 0.899197,0.550137 1.359964,0.80573 2.152622,1.194086 4.475403,2.08847 6.862693,2.679925 1.848101,0.369908 3.551338,0.689946 5.437325,0.332909 0.345245,-0.06536 1.223577,-0.559139 1.017812,-0.274312 -0.361164,0.499941 -1.0332,0.673806 -1.549799,1.010711 0.214014,-0.127683 0.439659,-0.237628 0.642041,-0.383045 0.784137,-0.563425 1.239077,-1.346769 1.265999,-2.312175 -0.0062,-0.181499 7.94e-4,-0.36393 -0.01868,-0.5445 -0.130643,-1.217133 -0.598533,-2.379167 -1.022222,-3.514666 -0.765282,-1.956708 -1.698924,-3.834249 -2.851822,-5.595144 -1.343173,-2.082811 -2.74747,-4.121237 -4.189996,-6.136476 -1.328391,-1.85011 -2.632022,-3.718044 -3.991176,-5.545876 -1.09153,-1.510784 -2.124337,-3.060443 -3.012006,-4.70205 -0.850717,-1.55652 -1.745054,-3.092646 -2.821442,-4.50672 -1.042866,-1.329793 -2.180454,-2.604923 -2.979771,-4.103946 -0.375132,-0.697593 -0.572546,-1.022938 -0.877268,-1.761496 -0.605265,-1.466987 -0.993053,-3.014818 -1.287967,-4.570333 -0.409398,-2.116161 -0.81257,-4.257881 -0.741539,-6.423556 0.103451,-1.412105 0.255722,-2.849936 0.920405,-4.125079 0.413108,-0.671968 0.492599,-0.866347 1.038053,-1.471298 1.060007,-1.175634 2.361263,-2.158145 3.594455,-3.138544 2.710114,-1.593389 5.076007,-3.331601 8.316707,-3.375812 0.364009,-0.005 0.72645,0.04876 1.089675,0.07314 0.330224,0.06507 0.665551,0.108161 0.990674,0.19522 1.50042,0.401773 2.703729,1.355718 3.704746,2.51304 1.515428,1.804486 2.901463,3.705417 4.094618,5.741042 1.523703,2.620743 2.861296,5.359733 3.669913,8.293629 0.115933,0.495736 0.246415,0.988293 0.347795,1.487207 0.515953,2.539108 0.693521,5.150284 0.397343,7.728175 -0.327376,2.890512 -0.76451,5.82468 -2.175216,8.415366 -0.167714,0.237188 -0.320188,0.485923 -0.503147,0.71156 -0.229648,0.283223 -0.705274,0.761344 -1.032071,0.959816 -1.363242,0.827934 -2.601063,1.669719 -4.102664,2.120696 -0.611187,0.136342 -0.72921,0.183245 -1.357053,0.24007 -1.034275,0.09361 -2.067753,-0.041 -3.091944,-0.175578 -2.050976,-0.31909 -4.062188,-0.818361 -6.095186,-1.230916 -1.926365,-0.385064 -3.861403,-0.74006 -5.825588,-0.865063 -1.767854,-0.103923 -3.541802,-0.156718 -5.309522,-0.0136 -0.777884,0.08454 -1.547347,0.171278 -2.294558,0.419946 -0.242177,0.0806 -0.914498,0.438351 -0.71096,0.284345 0.294731,-0.223006 2.884772,-1.764114 0.971794,-0.533844 -0.220236,0.192778 -0.453131,0.371988 -0.660707,0.578337 -1.306089,1.298363 -2.122176,3.005886 -2.842675,4.672779 -0.349285,1.069396 -0.517847,1.423107 -0.671831,2.54412 -0.236308,1.720347 0.01852,3.446862 0.697223,5.040402 0.195883,0.360188 0.359735,0.739741 0.58765,1.080567 0.877906,1.31282 2.25226,2.323705 3.742631,2.825318 0.384354,0.129363 0.785818,0.200845 1.178727,0.301268 0.415402,0.04449 0.829166,0.108635 1.246205,0.133469 2.260011,0.134591 4.564578,-0.149116 6.710944,-0.8636 -0.467794,0.308861 -0.934691,0.619091 -1.403383,0.926589 -0.244687,0.160531 0.500887,-0.305339 0.731356,-0.485693 0.754134,-0.590145 1.26342,-1.398775 1.53879,-2.307672 0.588488,-2.349137 0.680804,-4.785894 0.625052,-7.198904 -0.172649,-3.471006 -0.429975,-6.941164 -0.913285,-10.384211 -0.527743,-3.271964 -1.126425,-6.540899 -2.003613,-9.739495 0,0 2.447383,-1.335799 2.447383,-1.335799 z"
       inkscape:connector-curvature="0"
       style="stroke-width:0.26458332"
       inkscape:export-xdpi="5000"
       inkscape:export-ydpi="5000"
       inkscape:export-filename="/home/max/ownCloud/SS18/BA/Vortrag/Bilder/CNS.png" />
    <path
       style="fill:none;stroke:#000000;stroke-width:0.37639463;stroke-linecap:square;stroke-linejoin:miter;stroke-miterlimit:4;stroke-dasharray:none;stroke-opacity:1;marker-end:url(#Arrow1Mend)"
       d="M 61.237613,55.282505 52.598154,48.880457"
       id="path4574"
       inkscape:connector-curvature="0"
       inkscape:export-xdpi="5000"
       inkscape:export-ydpi="5000"
       inkscape:export-filename="/home/max/ownCloud/SS18/BA/Vortrag/Bilder/CNS.png" />
    <text
       xml:space="preserve"
       style="font-style:normal;font-variant:normal;font-weight:normal;font-stretch:normal;font-size:6.21091652px;line-height:1.25;font-family:'Open Sans';-inkscape-font-specification:'Open Sans, Normal';font-variant-ligatures:normal;font-variant-caps:normal;font-variant-numeric:normal;font-feature-settings:normal;text-align:start;letter-spacing:0px;word-spacing:0px;writing-mode:lr-tb;text-anchor:start;fill:#000000;fill-opacity:1;stroke:none;stroke-width:0.15527183"
       x="56.537491"
       y="66.254395"
       id="text7634"
       transform="scale(1.1080582,0.90247967)"
       inkscape:export-xdpi="5000"
       inkscape:export-ydpi="5000"
       inkscape:export-filename="/home/max/ownCloud/SS18/BA/Vortrag/Bilder/CNS.png"><tspan
         sodipodi:role="line"
         id="tspan7636"
         x="56.537491"
         y="66.254395"
         style="font-style:normal;font-variant:normal;font-weight:normal;font-stretch:normal;font-size:6.21091652px;font-family:'Open Sans';-inkscape-font-specification:'Open Sans, Normal';font-variant-ligatures:normal;font-variant-caps:normal;font-variant-numeric:normal;font-feature-settings:normal;text-align:start;writing-mode:lr-tb;text-anchor:start;stroke-width:0.15527183">ε&lt;0</tspan></text>
    <path
       style="fill:#000000;stroke-width:1.06500006;stroke-linecap:square;stroke-miterlimit:4;stroke-dasharray:none"
       id="path7640"
       d="m 123.88467,75.000841 c 1.43753,0.656728 2.93254,1.161844 4.44588,1.609892 0.98344,0.26493 1.98696,0.472448 3.00329,0.558641 0.57382,0.04866 0.70538,0.03314 1.27572,0.02548 0.86203,-0.07257 1.6856,-0.345649 2.45713,-0.729182 0.19968,-0.09926 0.77951,-0.433255 0.5883,-0.318513 -0.35505,0.213053 -0.72004,0.40907 -1.08006,0.613606 0.98532,-0.567603 1.86705,-1.281242 2.66081,-2.091428 0.67013,-0.759095 1.13591,-1.661271 1.55859,-2.573494 0.22883,-0.5339 0.48909,-1.056018 0.63089,-1.622425 0.10533,-0.420724 0.11952,-0.616257 0.1794,-1.051986 0.0973,-0.84388 0.19571,-1.693785 0.13607,-2.544585 -0.0411,-0.586864 -0.082,-0.699317 -0.19545,-1.269984 -0.38089,-1.297432 -0.91888,-2.54744 -1.46106,-3.784896 -0.5719,-1.245119 -1.17465,-2.475664 -1.77657,-3.706442 -0.56469,-1.173292 -1.10101,-2.359438 -1.67816,-3.526624 -0.44629,-0.930468 -0.9135,-1.849686 -1.31284,-2.801612 -0.47275,-0.962189 -0.94672,-1.920814 -1.3579,-2.911554 -0.37353,-0.97369 -0.70103,-1.968664 -0.94746,-2.982375 -0.14306,-0.638757 -0.22049,-1.289667 -0.25845,-1.942452 -0.0302,-0.615688 0.005,-1.228093 0.0752,-1.839529 0.0943,-0.656939 0.24405,-1.305867 0.47991,-1.926505 0.30193,-0.702228 0.8141,-1.289706 1.27403,-1.892623 0.4541,-0.572542 0.78569,-1.225592 1.21406,-1.815626 0.29895,-0.369396 0.60668,-0.731404 0.90652,-1.100207 0.33385,-0.375629 0.70423,-0.72531 1.11561,-1.014851 4.3336,-2.474384 0.88403,-0.570725 2.24775,-1.251458 0.35861,-0.179009 0.4229,-0.246436 0.81049,-0.368374 0.33542,-0.105527 0.42544,-0.09577 0.76159,-0.124299 0.6173,0.02949 1.04362,0.43737 1.45163,0.854861 0.30246,0.310975 0.57904,0.645419 0.8718,0.964882 0.35771,0.330983 0.64618,0.722083 0.9515,1.099291 0.43791,0.504116 0.77914,1.083458 1.12055,1.654852 0.58652,0.987171 1.24205,1.929157 1.89121,2.87523 0.41626,0.644361 0.86455,1.266547 1.30561,1.893811 0.25208,0.300397 0.45024,0.621175 0.56824,0.995479 0.0786,0.272013 0.0669,0.556646 0.11979,0.832802 0.048,0.214088 0.0762,0.431705 0.0906,0.650426 0.0267,0.186364 0.0854,0.365461 0.11447,0.551645 0.0275,0.202322 0.0276,0.40726 0.0288,0.611087 -0.021,0.295312 0.0301,0.585163 0.0722,0.875901 0.0471,0.309967 0.0508,0.623469 0.0536,0.936222 0.003,0.379566 0.002,0.759156 0.006,1.138717 5.3e-4,0.182755 0.005,0.365461 0.005,0.548219 -0.0254,0.214495 -0.0801,0.428009 -0.13907,0.636132 -0.0695,0.229278 -0.10252,0.466223 -0.12153,0.704268 -0.0407,0.403366 -0.21007,0.775142 -0.29772,1.169202 -0.11966,0.779428 -0.12142,1.571702 -0.13193,2.358533 -0.004,0.791665 2.6e-4,1.583343 0.002,2.375008 -0.003,0.862841 -0.006,1.725676 -0.002,2.588517 0.003,0.570561 0.01,1.141079 0.0131,1.711632 0.003,0.312356 0.002,0.624745 0.005,0.937098 0.002,0.200571 7.9e-4,0.401154 0.002,0.601721 2.6e-4,0.177649 -8e-4,0.355306 1.3e-4,0.532956 1e-5,0.210941 -0.005,0.42173 0.007,0.632338 0.0927,0.530458 0.16334,1.063744 0.20524,1.600578 0.0301,0.465977 0.0438,0.932773 0.0505,1.399606 0.0116,0.617371 0.23912,1.194568 0.46766,1.758641 0.29168,0.667223 0.60234,1.326332 0.92851,1.977371 0.23501,0.476372 0.587,0.877806 0.91259,1.292556 0.2534,0.342284 0.55281,0.646044 0.82374,0.973447 0.19563,0.247785 0.27104,0.556874 0.42368,0.828903 0.17466,0.282776 0.42038,0.50546 0.6256,0.764391 0.19336,0.249952 0.40169,0.491541 0.65633,0.680361 0.26494,0.177858 0.52892,0.355766 0.79965,0.524962 0.14929,0.113411 0.34182,0.131011 0.50792,0.20061 0.095,0.03983 0.17982,0.100756 0.2705,0.149719 0.40337,0.248317 0.82194,0.470144 1.23283,0.705369 0.26589,0.145002 0.49582,0.351353 0.77174,0.479126 0.10992,0.0509 0.22593,0.0875 0.33835,0.132601 0.2953,0.15135 0.57811,0.311703 0.90252,0.391129 0.25413,0.09228 0.49088,0.246988 0.71352,0.400682 0.18592,0.103341 0.37472,0.203957 0.57548,0.276011 0.15549,0.0382 0.31675,0.0397 0.47597,0.04024 0,0 -1.61675,1.166863 -1.61675,1.166863 v 0 c -0.17494,-0.01024 -0.35095,-0.0296 -0.51412,-0.09813 -0.20489,-0.08957 -0.40505,-0.193477 -0.59434,-0.31236 -0.2156,-0.135583 -0.42699,-0.289094 -0.67732,-0.351972 -0.31946,-0.104077 -0.60541,-0.273188 -0.91004,-0.411954 -0.40059,-0.166071 -0.7529,-0.402598 -1.1151,-0.639185 -0.41177,-0.232913 -0.82835,-0.457346 -1.2396,-0.691211 -0.26008,-0.127905 -0.54196,-0.206119 -0.78773,-0.363686 -0.27575,-0.172077 -0.54461,-0.355565 -0.81138,-0.540901 -0.25903,-0.207399 -0.4752,-0.461145 -0.67917,-0.721982 -0.21332,-0.265133 -0.46657,-0.496982 -0.64361,-0.790485 -0.14904,-0.262154 -0.22455,-0.556109 -0.4021,-0.801327 -0.27043,-0.329277 -0.56707,-0.637104 -0.81954,-0.981424 -0.33384,-0.424924 -0.68667,-0.842997 -0.92316,-1.332961 -0.32392,-0.657701 -0.63233,-1.323263 -0.92593,-1.995035 -0.2412,-0.582403 -0.49031,-1.172916 -0.5306,-1.810194 7.9e-4,-0.464907 -0.002,-0.930132 -0.0309,-1.394312 -0.0394,-0.533096 -0.0949,-1.066136 -0.21882,-1.587257 -0.0312,-0.214759 -0.0257,-0.429564 -0.0249,-0.646385 10e-4,-0.177694 -2.1e-4,-0.355396 1.4e-4,-0.533093 0.001,-0.2013 5.3e-4,-0.402613 0.002,-0.603916 0.003,-0.314145 0.002,-0.628325 0.005,-0.942473 0.004,-0.574926 0.0104,-1.149823 0.0128,-1.724758 0.003,-0.861628 5.3e-4,-1.723249 -0.005,-2.584865 -2.6e-4,-0.794245 2.6e-4,-1.588497 0.008,-2.382713 0.006,-0.793202 0.007,-1.588537 0.0912,-2.378231 0.034,-0.199316 0.0418,-0.283962 0.0982,-0.473168 0.0659,-0.221207 0.18189,-0.42936 0.1965,-0.664017 0.008,-0.251015 0.0379,-0.499996 0.10189,-0.7435 0.0551,-0.194519 0.0922,-0.39229 0.15602,-0.58338 -1.4e-4,-0.184544 0.005,-0.369027 0.006,-0.553571 0.005,-0.379529 0.004,-0.759109 5.3e-4,-1.138645 -0.006,-0.304065 -0.0101,-0.608936 -0.0483,-0.911077 -0.04,-0.298194 -0.10252,-0.594844 -0.0881,-0.897242 -0.001,-0.195519 -2.7e-4,-0.391631 -0.0192,-0.586425 -0.0233,-0.19267 -0.0783,-0.37782 -0.12071,-0.566806 -0.01,-0.210786 -0.0289,-0.421394 -0.0756,-0.627653 -0.054,-0.271825 -0.052,-0.546568 -0.10612,-0.818372 -0.10026,-0.359876 -0.29621,-0.656609 -0.52747,-0.947745 -0.426,-0.63662 -0.85396,-1.271805 -1.26576,-1.917838 -0.64588,-0.952762 -1.303,-1.897957 -1.91787,-2.871465 -0.34529,-0.558953 -0.68819,-1.125982 -1.12077,-1.62297 -0.30719,-0.371567 -0.60148,-0.753567 -0.95329,-1.085405 -0.29093,-0.318053 -0.56829,-0.648555 -0.86548,-0.961099 -0.37637,-0.384355 -0.76408,-0.741154 -1.33988,-0.714963 -0.32715,0.04697 -0.39203,0.04019 -0.71781,0.15929 -0.72672,0.265676 -2.68949,1.455415 0.30695,-0.297532 -0.43299,0.244719 -0.79068,0.60474 -1.13654,0.958173 -0.31377,0.358484 -0.59551,0.745167 -0.92083,1.094388 -0.45321,0.58134 -0.78424,1.239306 -1.23207,1.824805 -0.45046,0.590351 -0.94789,1.164386 -1.27416,1.835361 -0.25832,0.601912 -0.41171,1.240343 -0.5163,1.886014 -0.0215,0.178104 -0.0713,0.562578 -0.0798,0.745117 -0.0164,0.351179 0.0171,0.704453 0.0109,1.055825 0.0187,0.646221 0.0759,1.29186 0.21131,1.925151 0.23514,1.007221 0.54985,1.997194 0.91903,2.963087 0.4089,0.991753 0.89791,1.941957 1.36858,2.904953 0.39386,0.950492 0.85949,1.866619 1.29522,2.798268 0.56732,1.172262 1.09944,2.360601 1.66644,3.533137 0.60502,1.232365 1.2072,2.466237 1.77618,3.715813 0.54979,1.248643 1.10071,2.506983 1.4905,3.815845 0.11487,0.568632 0.16169,0.714658 0.20879,1.298355 0.0692,0.857975 -0.0272,1.713598 -0.11123,2.566567 -0.0479,0.412872 -0.0667,0.669449 -0.15449,1.072179 -0.12636,0.579385 -0.38075,1.109522 -0.61674,1.64951 -0.42804,0.927357 -0.8898,1.847557 -1.54658,2.63814 -0.78228,0.834342 -1.66362,1.564846 -2.6526,2.144926 -1.71442,0.992302 -3.28124,2.115934 -5.30475,2.250369 -0.21125,-0.0011 -0.42265,0.0049 -0.63373,-0.0033 -1.2383,-0.04828 -2.45828,-0.319651 -3.64878,-0.646956 -1.53187,-0.464397 -3.04104,-0.989174 -4.52805,-1.582664 0,0 1.63712,-1.089228 1.63712,-1.089228 z"
       inkscape:connector-curvature="0"
       inkscape:export-xdpi="5000"
       inkscape:export-ydpi="5000"
       inkscape:export-filename="/home/max/ownCloud/SS18/BA/Vortrag/Bilder/CNS_Schleife.png" />
    <ellipse
       style="fill:#ff0000;stroke-width:1.06500006;stroke-linecap:square;stroke-miterlimit:4;stroke-dasharray:none"
       id="path7642"
       cx="143.52373"
       cy="65.41095"
       rx="3.2072344"
       ry="3.8754082"
       inkscape:export-xdpi="5000"
       inkscape:export-ydpi="5000"
       inkscape:export-filename="/home/max/ownCloud/SS18/BA/Vortrag/Bilder/CNS_Schleife.png" />
    <text
       xml:space="preserve"
       style="font-style:normal;font-variant:normal;font-weight:normal;font-stretch:normal;font-size:6.21091652px;line-height:1.25;font-family:'Open Sans';-inkscape-font-specification:'Open Sans, Normal';font-variant-ligatures:normal;font-variant-caps:normal;font-variant-numeric:normal;font-feature-settings:normal;text-align:start;letter-spacing:0px;word-spacing:0px;writing-mode:lr-tb;text-anchor:start;fill:#000000;fill-opacity:1;stroke:none;stroke-width:0.15527183"
       x="134.28761"
       y="69.07373"
       id="text7634-1"
       transform="scale(1.1080582,0.90247967)"
       inkscape:export-xdpi="5000"
       inkscape:export-ydpi="5000"
       inkscape:export-filename="/home/max/ownCloud/SS18/BA/Vortrag/Bilder/CNS_Schleife.png"><tspan
         sodipodi:role="line"
         id="tspan7727"
         x="134.28761"
         y="69.07373">γε</tspan></text>
    <ellipse
       id="path14-6"
       cx="7.5595117"
       cy="49.803574"
       rx="2.0788691"
       ry="2.1733632"
       style="fill:#ff2a2a;stroke-width:0.26458332"
       inkscape:export-xdpi="5000"
       inkscape:export-ydpi="5000"
       inkscape:export-filename="/home/max/ownCloud/SS18/BA/Vortrag/Bilder/CNS.png" />
    <ellipse
       id="path14-7"
       cx="49.136902"
       cy="47.346725"
       rx="2.0788691"
       ry="2.1733632"
       style="fill:#ff2a2a;stroke-width:0.26458332"
       inkscape:export-xdpi="5000"
       inkscape:export-ydpi="5000"
       inkscape:export-filename="/home/max/ownCloud/SS18/BA/Vortrag/Bilder/CNS.png" />
    <path
       style="fill:#000000;stroke-width:1.11634803;stroke-linecap:square;stroke-miterlimit:4;stroke-dasharray:none"
       id="path4567"
       d="m 86.849696,88.219033 c 1.11,1.51002 1.98569,3.09349 2.741836,4.70543 0.92864,2.05985 1.5645,4.17833 2.10281,6.30349 0.44858,1.855017 0.5464,3.735797 0.61078,5.612737 6.3e-4,0.0323 0.034,1.62125 0.0266,1.6754 -0.15084,1.09765 -0.89212,2.13231 -1.54839,3.11386 -1.06136,1.45307 -2.456876,2.76853 -3.900966,4.04215 -1.42402,1.27388 -3.03917,2.18165 -4.95752,3.05473 -2.48071,1.11955 -5.00748,2.08741 -7.8958,2.49781 -0.87291,0.10348 -1.75745,0.13524 -2.64101,0.14893 -0.20889,0.003 -0.4189,0.0219 -0.62675,0.005 -0.20966,-0.0137 -0.41155,-0.0641 -0.61733,-0.0961 -1.31209,-0.31502 -2.47878,-0.83796 -3.58174,-1.41732 -1.07245,-0.57137 -1.97794,-1.27286 -2.82563,-2.00255 -0.68785,-0.60975 -1.24382,-1.28293 -1.73315,-1.97881 -0.42989,-0.62713 -0.75659,-1.28865 -1.02332,-1.95836 -0.23462,-0.68843 -0.2777,-1.39737 -0.30594,-2.10189 -0.0175,-0.63152 -0.0128,-1.26314 -0.0134,-1.89471 0.0314,-0.4844 -0.0122,-0.96247 -0.0985,-1.44227 -0.0571,-0.43 -0.15566,-0.856 -0.28323,-1.27828 -0.14459,-0.46931 -0.2331,-0.94555 -0.41232,-1.40941 -0.19177,-0.43304 -0.38856,-0.86481 -0.57184,-1.2998 -0.11585,-0.39413 -0.27868,-0.77187 -0.5209,-1.1366 -0.24658,-0.26774 -0.41036,-0.57165 -0.66593,-0.8344 -0.2562,-0.26418 -0.5808,-0.46644 -0.94451,-0.653227 -0.39774,-0.23352 -0.83359,-0.43566 -1.27222,-0.63053 -0.49974,-0.19848 -1.00052,-0.39038 -1.52334,-0.55705 -0.54189,-0.15769 -1.11492,-0.24529 -1.67207,-0.36873 -0.53267,-0.12949 -1.08975,-0.16727 -1.64836,-0.18917 -0.53893,-0.0164 -1.07846,-0.0137 -1.6177,-0.0109 -0.45432,0.002 -0.90864,0.002 -1.36297,0.003 -0.077,2e-5 -0.15407,5e-5 -0.23111,8e-5 -0.1555,3e-5 -0.32294,-0.0419 -0.46648,5e-5 -0.0784,0.0219 -0.26033,0.15112 -0.18561,0.12265 2.56278,-0.97465 3.66715,-1.59489 2.56443,-0.98837 -0.60801,0.37952 -1.27345,0.7085 -1.90615,1.06683 -0.84153,0.4574 -1.64968,0.9398 -2.39925,1.4703 -0.80792,0.544257 -1.43625,1.192227 -2.01134,1.861847 -0.43708,0.52919 -0.77854,1.09358 -1.14737,1.64704 -0.29388,0.41363 -0.40523,0.86282 -0.45896,1.31858 -0.0427,0.54191 -0.0375,1.08514 -0.034,1.62768 0.0554,0.19218 -0.0537,0.39611 0.002,0.58824 0.12131,0.41781 0.90056,0.87872 1.29969,1.17504 0.95734,0.67589 1.84558,1.39518 2.65994,2.15749 0.81544,0.81918 1.67356,1.61813 2.48143,2.44117 0.85144,0.80881 1.55637,1.6843 2.27275,2.55325 0.60624,0.7552 1.32842,1.46107 2.03317,2.17178 0.6969,0.73744 1.4913,1.42562 2.26026,2.12585 0.83349,0.81111 1.56836,1.66834 2.25582,2.5435 0.72401,0.82603 1.23414,1.72274 1.71756,2.62741 0.43314,0.84084 0.64635,1.72514 0.91656,2.59601 0.26378,0.91182 0.47145,1.83087 0.62381,2.75504 0.12479,0.81307 0.13193,1.63181 0.14271,2.44864 0.007,0.77532 0.005,1.55073 0.002,2.32608 8e-5,0.38556 -10e-4,0.77116 -0.002,1.15673 -2.5e-4,0.12949 0.0235,0.26007 -1.5e-4,0.38833 -0.064,0.3479 -0.19647,0.48973 -0.39994,0.80341 -0.52197,0.68153 -1.09563,1.34269 -1.67722,1.99967 -0.52302,0.58084 -1.02745,1.16946 -1.59082,1.73163 -0.60088,0.57019 -1.18617,1.14561 -1.83631,1.68884 -0.82409,0.68493 -1.70964,1.33125 -2.59689,1.97539 -0.75331,0.5412 -1.54608,1.04966 -2.39823,1.51259 -1.66253,0.879 -3.53403,1.55319 -5.32881,2.27908 -0.8181,0.34368 -1.67395,0.63723 -2.52051,0.94316 -0.65649,0.25597 -1.36216,0.43504 -2.06779,0.60945 -0.61933,0.17439 -1.25868,0.30117 -1.89831,0.43192 -0.57466,0.11224 -1.17088,0.1377 -1.76374,0.15276 -0.49639,0.008 -0.99305,0.008 -1.48955,0.005 -0.42637,-6.8e-4 -0.85275,-8.7e-4 -1.27913,-0.002 -0.17159,-0.0274 -0.81468,0.0411 -0.93147,8.8e-4 -0.0906,-0.0312 -0.1523,-0.0931 -0.22846,-0.13962 -0.34721,-0.24201 -0.75275,-0.43824 -1.20301,-0.57165 -0.37238,-0.15029 -0.77326,-0.26363 -1.17611,-0.3673 -0.36507,-0.13086 -0.76036,-0.21299 -1.149824,-0.29871 -0.426456,-0.14619 -0.864485,-0.2691 -1.293569,-0.40897 -0.464666,-0.10786 -0.850112,-0.30505 -1.249958,-0.49395 -0.430476,-0.17083 -0.872505,-0.33645 -1.259895,-0.55349 -0.391496,-0.26719 -0.796372,-0.52448 -1.173748,-0.80166 -0.415711,-0.32967 -0.858659,-0.64192 -1.267007,-0.97802 -0.342682,-0.37152 -0.793646,-0.68054 -1.162841,-1.03734 -0.359128,-0.3056 -0.743473,-0.59322 -1.061638,-0.92148 -0.280144,-0.30629 -0.62852,-0.57126 -0.915697,-0.87435 -0.281395,-0.26609 -0.54629,-0.53994 -0.824148,-0.80771 -0.270193,-0.29916 -0.573511,-0.58128 -0.846936,-0.8788 -0.278992,-0.27653 -0.586647,-0.53003 -0.82873,-0.82405 -0.293932,-0.33862 -0.529543,-0.69949 -0.786348,-1.05207 -0.212848,-0.3456 -0.502762,-0.66108 -0.795617,-0.97449 -0.185496,-0.25788 -0.427556,-0.48664 -0.682792,-0.71085 -0.214909,-0.27185 -0.527314,-0.49064 -0.803916,-0.73054 -0.299923,-0.30294 -0.570268,-0.62009 -0.839001,-0.93708 -0.211391,-0.29553 -0.38563,-0.60313 -0.564812,-0.90887 -0.162888,-0.29287 -0.289165,-0.59551 -0.465008,-0.88491 -0.17969,-0.33634 -0.269739,-0.69043 -0.43803,-1.02962 -0.195961,-0.40079 -0.394054,-0.80054 -0.572199,-1.20562 -0.148878,-0.39386 -0.261625,-0.79479 -0.370618,-1.19514 -0.09687,-0.35187 -0.266944,-0.6866 -0.430468,-1.02439 -0.121473,-0.24639 -0.142992,-0.50701 -0.244794,-0.75633 -0.06014,-0.20149 -0.1408396,-0.39049 -0.2597106,-0.57753 -0.06927,-0.16836 -0.03928,-0.0854 -0.091,-0.24885 0,0 3.1051916,-1.16806 3.1051916,-1.16806 v 0 c 0.03655,0.1388 0.0164,0.0717 0.05963,0.20094 0.122372,0.19821 0.227037,0.39184 0.276464,0.60718 0.106992,0.24803 0.139529,0.50077 0.233065,0.75148 0.160965,0.35039 0.33811,0.69508 0.444209,1.05716 0.101991,0.3926 0.223957,0.78277 0.34949,1.17168 0.173807,0.40177 0.371675,0.7973 0.570173,1.19311 0.174296,0.33248 0.266166,0.67959 0.433218,1.01314 0.181056,0.28882 0.303519,0.59398 0.466072,0.88792 0.178665,0.29367 0.333807,0.59467 0.53449,0.88143 0.259458,0.30662 0.523799,0.61227 0.815862,0.90408 0.280308,0.23844 0.591272,0.45984 0.810309,0.73053 0.263646,0.22996 0.506678,0.46888 0.696246,0.73388 0.295173,0.32213 0.589416,0.64632 0.807585,0.99888 0.255175,0.34899 0.48687,0.70699 0.783919,1.0401 0.234126,0.2915 0.558061,0.53304 0.820523,0.81184 0.270037,0.2932 0.561687,0.57521 0.834122,0.86734 0.282645,0.26966 0.552099,0.54585 0.833177,0.81639 0.287404,0.30097 0.632409,0.56822 0.910822,0.87368 0.316231,0.32548 0.707104,0.60598 1.050584,0.91659 0.365926,0.34924 0.809327,0.65516 1.145567,1.0211 0.411041,0.32879 0.844263,0.64184 1.265698,0.96313 0.368235,0.26637 0.752806,0.52225 1.146727,0.76941 0.397225,0.20231 0.836282,0.35969 1.252641,0.5415 0.38007,0.18561 0.77696,0.34239 1.21282,0.45628 0.42978,0.12511 0.84005,0.27801 1.27799,0.38852 0.39099,0.0961 0.78922,0.17713 1.16145,0.30738 0.40315,0.11498 0.80408,0.23434 1.18416,0.38409 0.44906,0.16097 0.85542,0.36583 1.23494,0.59891 0.3383,0.0564 0.69994,-4.6e-4 1.04459,0.0219 0.42579,1.7e-4 0.85158,0.002 1.27737,0.003 0.49123,-2.5e-4 0.98274,0.003 1.47357,-0.0137 0.57786,-0.0246 1.15446,-0.0726 1.70845,-0.19738 0.63368,-0.13442 1.26457,-0.2724 1.88244,-0.44032 0.69691,-0.17767 1.3803,-0.38078 2.0326,-0.62955 0.84846,-0.29881 1.6839,-0.61435 2.50625,-0.94749 -5.21727,2.13094 -1.7263,0.75556 -0.60887,0.15988 0.87148,-0.44689 1.67376,-0.94664 2.43613,-1.48281 0.88865,-0.63737 1.77294,-1.2788 2.59913,-1.95688 0.64497,-0.5383 1.24203,-1.0959 1.83041,-1.66519 0.56984,-0.55973 1.10162,-1.13529 1.61085,-1.72358 0.5931,-0.64808 1.14697,-1.31343 1.69901,-1.97906 0.13237,-0.17165 0.41163,-0.49822 0.46457,-0.70072 0.0333,-0.1273 3.3e-4,-0.25898 3.3e-4,-0.38847 -7e-5,-0.38559 -1.5e-4,-0.77119 10e-4,-1.15681 -2.7e-4,-0.77513 0.005,-1.55026 0.003,-2.32539 -0.007,-0.80998 -0.0176,-1.62112 -0.12275,-2.42836 -0.13203,-0.9179 -0.34306,-1.82876 -0.60144,-2.73316 -0.27474,-0.85899 -0.4797,-1.73264 -0.89193,-2.5665 -0.4764,-0.89408 -0.96969,-1.78378 -1.68797,-2.59913 -0.67399,-0.86594 -1.40452,-1.71068 -2.23414,-2.50813 -0.77861,-0.70069 -1.56914,-1.39641 -2.27936,-2.13277 -0.70759,-0.71715 -1.42664,-1.43208 -2.03182,-2.19522 -0.7142,-0.86227 -1.41085,-1.73374 -2.25366,-2.5389 -0.80846,-0.81926 -1.67149,-1.61203 -2.48365,-2.42943 -0.80618,-0.75569 -1.69274,-1.46413 -2.64474,-2.13121 -0.48425,-0.35795 -1.26893,-0.83139 -1.45251,-1.32641 -3.2e-4,-8.7e-4 -0.003,-0.58382 -0.003,-0.5879 -9.9e-4,-0.5466 -0.0145,-1.09346 0.0104,-1.63989 0.0422,-0.47975 0.12155,-0.96127 0.41379,-1.40263 0.3711,-0.56129 0.73002,-1.12806 1.14657,-1.67345 0.56846,-0.68383 1.18201,-1.35529 1.9852,-1.91689 0.73695,-0.54087 1.52097,-1.043577 2.37599,-1.492407 0.61609,-0.36438 1.27931,-0.68504 1.88256,-1.05884 1.27439,-0.79106 2.69987,-1.59726 4.4106,-1.50774 0.45402,-7.2e-4 0.90804,-0.002 1.36205,-0.002 0.54265,0.002 1.086,0.002 1.62755,0.0285 0.57535,0.0356 1.14267,0.0999 1.6903,0.23434 0.57487,0.11416 1.15251,0.2264 1.70034,0.39651 0.53285,0.17302 1.04108,0.37925 1.55,0.58441 0.44558,0.1982 0.88105,0.41069 1.29089,0.64353 0.39128,0.20587 0.72828,0.44248 1.0097,0.72487 0.25863,0.27669 0.44217,0.58549 0.68592,0.868887 0.25321,0.3753 0.4371,0.76268 0.54119,1.17223 0.18047,0.43684 0.38096,0.869 0.57359,1.30305 0.1888,0.46663 0.27823,0.94615 0.42154,1.41993 0.14374,0.42687 0.24384,0.86128 0.30023,1.29809 0.0905,0.49119 0.14994,0.97857 0.1074,1.47504 -0.006,0.63064 -0.0116,1.26136 -3.3e-4,1.892 0.0211,0.68624 0.0501,1.37741 0.26709,2.04969 0.24778,0.65768 0.57715,1.30264 0.99136,1.91781 0.47111,0.68173 1.00437,1.34201 1.67751,1.93715 0.82799,0.71465 1.71328,1.40212 2.76897,1.9557 1.07505,0.55185 2.21353,1.06236 3.50687,1.31962 1.25736,0.12593 2.54493,0.008 3.79259,-0.12977 1.07129,-0.1711 2.09716,-0.40024 3.10403,-0.71271 0.30001,-0.0931 1.15954,-0.42614 0.88998,-0.29484 -0.64016,0.31179 -1.33882,0.55968 -2.00822,0.83952 1.9034,-0.8384 3.59551,-1.73727 5.00647,-2.98481 1.4527,-1.25698 2.84286,-2.56105 3.93401,-3.99181 0.6006,-0.87352 1.456026,-2.05221 1.616736,-3.01812 0.0102,-0.0594 -0.0135,-1.63716 -0.014,-1.67581 -0.0464,-1.86882 -0.14018,-3.74165 -0.560376,-5.59078 -0.51453,-2.116947 -1.14299,-4.225877 -2.08203,-6.272227 -0.75044,-1.59067 -1.60502,-3.16828 -2.83278,-4.61178 0,0 3.02239,-1.22763 3.02239,-1.22763 z"
       inkscape:connector-curvature="0" />
    <path
       style="fill:#000000;stroke-width:1.32504213;stroke-linecap:square;stroke-miterlimit:4;stroke-dasharray:none"
       id="path4569"
       d="m 43.782915,211.2762 c 0.36627,0.80689 0.71045,1.62421 1.06187,2.43807 0.22277,0.5195 0.44364,1.03987 0.66735,1.55894 0.0298,0.0688 0.0375,0.15263 0.0892,0.20631 0.3068,0.31829 1.11424,0.48046 1.53754,0.60675 0.51128,0.13925 1.00287,0.33532 1.48502,0.54702 0.44122,0.17896 0.91768,0.22046 1.39192,0.26276 0.57058,0.0573 1.12288,-0.10614 1.66216,-0.3007 0.63709,-0.24379 1.2522,-0.54409 1.8713,-0.83249 0.780571,-0.36787 1.561959,-0.73386 2.342231,-1.1024 0.144119,-0.0669 0.300361,-0.11127 0.43224,-0.20085 0.67714,-0.45945 1.252889,-1.5338 1.73474,-2.20939 0.72694,-0.92567 1.529929,-1.7979 2.35834,-2.63539 0.83765,-0.87621 1.641448,-1.78437 2.44081,-2.69511 0.75464,-0.86545 1.5107,-1.73027 2.283555,-2.57976 0.669801,-0.7729 1.344221,-1.53992 1.997041,-2.32694 0.641461,-0.73968 1.29409,-1.47201 2.016551,-2.13448 0.547439,-0.47852 1.07782,-0.97691 1.653008,-1.42203 0.427353,-0.32691 0.905571,-0.57213 1.384602,-0.80806 0.57871,-0.2822 1.163151,-0.55163 1.74779,-0.82035 0.545679,-0.25059 1.090549,-0.50307 1.635418,-0.75555 0.083,-0.0384 0.160081,-0.0976 0.24901,-0.11519 0.295601,-0.0581 1.461551,0.42801 1.798011,0.53562 0.820031,0.19578 1.647521,0.35864 2.468329,0.5527 0.844802,0.21349 1.666942,0.50528 2.450053,0.87451 0.765958,0.39688 1.484318,0.86848 2.193448,1.35353 0.793862,0.5512 1.56459,1.1346 2.30654,1.75218 0.878221,0.67642 1.639012,1.46138 2.344312,2.31107 0.866327,1.12229 1.45878,2.42681 2.057749,3.70956 0.346239,0.7575 0.681371,1.52038 1.014219,2.28427 0.1088,0.24947 0.23689,0.4909 0.324692,0.74921 0.133249,0.39265 0.275,1.17171 0.356639,1.58171 0.279969,1.27193 0.29981,2.58571 0.435121,3.88119 0.114027,1.09659 0.142669,2.20651 0.126479,3.31393 -0.006,0.17859 -0.0168,0.35737 -0.0185,0.53593 -0.008,0.80988 0.0398,0.24863 -0.0328,1.0404 -0.0154,0.16768 -0.0727,0.6701 -0.0521,0.50273 0.44182,-3.59671 0.477488,-3.82134 0.283218,-2.45984 -0.135239,0.9664 -0.395409,1.90925 -0.750959,2.82531 -0.36708,0.94117 -0.863359,1.81838 -1.435039,2.65525 -0.575641,0.80267 -1.251252,1.51829 -1.969061,2.19483 -0.60823,0.5954 -1.31921,1.04975 -2.05717,1.45805 -0.923369,0.48337 -1.87016,0.91678 -2.815029,1.35273 -0.464582,0.13983 -0.880081,0.49845 -1.34829,0.62191 -0.48613,0.12836 -1.099582,-0.005 -1.579182,-0.0505 -1.18895,-0.16943 -2.391219,-0.22096 -3.596359,-0.24669 -1.16231,0.004 -2.32781,0.14163 -3.486751,0.27803 -0.91553,0.11083 -1.799749,0.38086 -2.664928,0.71278 -0.717863,0.29718 -1.422242,0.6288 -2.126382,0.95928 -0.290309,0.19483 -0.685999,0.24574 -0.967529,0.45263 -0.429051,0.3162 -0.58452,0.78427 -0.772009,1.25185 -0.37865,0.98443 -0.65315,2.0011 -0.894861,3.02119 -0.467849,1.98309 -0.57129,4.01163 -0.828849,6.01983 -0.0794,0.70329 -0.0527,1.40707 -0.0959,2.11052 0.0154,0.54653 0.0552,1.10225 0.163409,1.63588 0.0964,0.46079 0.25949,0.89806 0.4372,1.32935 0.216311,0.50197 0.436409,1.00215 0.653651,1.50366 0.041,0.0936 0.0594,0.20183 0.123039,0.28139 0.2354,0.29293 1.11673,0.705 1.47996,0.89476 0.413631,0.12567 0.76204,0.37952 1.15696,0.54191 0.270361,0.0994 0.575741,0.11503 0.86673,0.11543 0.256672,2.4e-4 0.514,-0.005 0.770562,-2.1e-4 0.344138,0.005 0.686458,-0.0737 1.018698,-0.17156 0.285181,-0.0985 0.56265,-0.2205 0.83679,-0.34834 0.30108,-0.14001 0.600001,-0.28497 0.90143,-0.42413 0.355031,-0.16635 0.709991,-0.33276 1.064602,-0.50009 0.42514,-0.19896 0.85068,-0.39703 1.276199,-0.59511 0.367969,-0.16557 0.73194,-0.34047 1.098611,-0.50908 0.274248,-0.12312 0.546909,-0.25004 0.818319,-0.37977 0.274119,-0.12646 0.547039,-0.2557 0.82156,-0.38127 0.273219,-0.12703 0.545529,-0.2562 0.819259,-0.38207 0.266771,-0.12398 0.533651,-0.24767 0.800121,-0.37236 0.22493,-0.0979 0.435279,-0.22774 0.6771,-0.26821 0.254511,-0.0314 0.504489,-0.0892 0.75954,-0.065 0.300191,0.0729 0.606499,0.12789 0.895411,0.23547 0.300598,0.0636 0.54729,0.24982 0.797128,0.41407 0.30226,0.1843 0.61159,0.36854 0.849691,0.63267 0.301929,0.21809 0.508691,0.48339 0.687221,0.80572 0.17544,0.38921 0.354258,0.75658 0.608978,1.09619 0.223721,0.30245 0.40255,0.63372 0.565452,0.97315 0.176458,0.37559 0.33673,0.75893 0.502729,1.1395 0.135861,0.3141 0.27237,0.62791 0.409991,0.94118 0.0491,0.11193 0.125719,0.21405 0.147518,0.33528 0.0269,0.14605 -0.0021,0.29932 -0.004,0.44898 -0.0931,1.15385 -0.201012,2.30943 -0.339222,3.46075 -0.254868,2.07237 0.20606,-1.6714 0.25728,-2.1472 0.02331,-0.21624 -0.0683,0.43056 -0.10491,0.64555 -0.10605,0.62248 -0.234389,1.23803 -0.377078,1.85452 -0.26271,1.24496 -0.765033,2.42514 -1.320112,3.57526 -0.474258,0.94097 -0.995911,1.85784 -1.609548,2.71908 -0.456041,0.62276 -1.000482,1.15372 -1.630241,1.59624 -0.7142,0.45931 -1.487929,0.81042 -2.250742,1.17386 -0.171989,0.0811 -0.334729,0.18855 -0.516228,0.24256 -0.910212,0.27473 -2.61932,0.0175 -3.572492,-0.0648 -1.523597,-0.12849 -3.0519,-0.22953 -4.559278,-0.46371 -1.296332,-0.15523 -2.55899,-0.46435 -3.821319,-0.76373 -1.136031,-0.33791 -2.295382,-0.60271 -3.457491,-0.85027 -1.161169,-0.27387 -2.330817,-0.52651 -3.509417,-0.73098 -1.022292,-0.20305 -2.043811,-0.42031 -3.077581,-0.57197 -0.909111,-0.14554 -1.82495,-0.19008 -2.749539,-0.19926 -0.82504,-0.0363 -1.649651,0.0724 -2.470681,0.18696 -0.81732,0.0997 -1.62241,0.25109 -2.4117,0.50662 -0.97053,0.28411 -1.92016,0.63517 -2.85926,1.0175 -0.97841,0.41425 -1.94436,0.85933 -2.9097,1.30514 -1.00022,0.46485 -1.99745,0.93656 -2.9974,1.402 -0.52186,0.24178 -1.04265,0.48605 -1.56434,0.7282 -0.16905,0.0784 -0.35061,0.13283 -0.50695,0.23528 -0.39357,0.25733 -0.57306,0.52351 -0.86852,0.87595 -0.72287,1.00346 -1.44261,2.00061 -2.27445,2.91931 -0.90285,1.01992 -1.96023,1.87453 -3.005789,2.73925 -0.891444,0.78242 -1.829071,1.50754 -2.737357,2.26963 -0.621306,0.52731 -1.205991,1.09642 -1.84374,1.60387 -0.379818,0.33213 -0.782587,0.63374 -1.182157,0.94044 -0.208932,0.19964 -0.41779,0.39566 -0.650324,0.56728 -0.10093,0.0924 -0.179234,0.20386 -0.272243,0.30416 0,0 -0.112112,3.51398 -0.112112,3.51398 v 0 c 0.0969,-0.0963 0.210644,-0.1852 0.270006,-0.30953 0.143013,-0.23464 0.479127,-0.32912 0.628982,-0.57501 0.334332,-0.36747 0.823515,-0.58314 1.156469,-0.96047 0.653681,-0.50254 1.24094,-1.08143 1.858992,-1.6265 0.905471,-0.77459 1.843903,-1.50712 2.735147,-2.29839 1.047466,-0.87456 2.135086,-1.70645 3.054286,-2.72309 0.84518,-0.91513 1.59945,-1.89165 2.29977,-2.91999 0.10255,-0.13724 0.5469,-0.75629 0.70145,-0.87186 0.15016,-0.11201 0.33811,-0.1581 0.50716,-0.23712 0.52141,-0.24342 1.04359,-0.48505 1.56462,-0.72935 0.99808,-0.46529 1.99747,-0.92749 2.99579,-1.39218 0.95983,-0.44696 1.91934,-0.89566 2.89387,-1.30731 0.92818,-0.38381 1.86701,-0.74026 2.83228,-1.00729 0.76863,-0.25385 1.5502,-0.41074 2.34794,-0.50631 0.80437,-0.10807 1.611921,-0.23242 2.42031,-0.19293 0.909291,0.009 1.81111,0.0368 2.704499,0.18792 1.031301,0.14759 2.050362,0.35858 3.069961,0.55988 1.174059,0.20109 2.340041,0.44688 3.496458,0.71905 1.15843,0.25535 2.312599,0.52875 3.4509,0.85399 1.27173,0.29736 2.544669,0.59754 3.850449,0.74819 1.516261,0.22808 3.05163,0.32995 4.582401,0.46304 1.015979,0.0836 2.778379,0.35151 3.75031,0.10208 0.18234,-0.0468 0.34418,-0.15794 0.516681,-0.23595 0.779989,-0.35852 1.567428,-0.70844 2.307008,-1.15117 0.67269,-0.4446 1.262462,-0.96673 1.757492,-1.60879 0.631147,-0.87256 1.184878,-1.7879 1.670129,-2.74685 0.569069,-1.15152 1.116881,-2.32681 1.398101,-3.57627 0.57531,-2.35126 0.854879,-4.73955 1.091568,-7.13497 0.12311,-1.16268 0.28489,-2.33126 0.274341,-3.49596 -0.0318,-0.16085 -0.0496,-0.32564 -0.0953,-0.48258 -0.13127,-0.45009 -0.4031,-0.85385 -0.55391,-1.29704 -0.16633,-0.38564 -0.334949,-0.77065 -0.52188,-1.14618 -0.180729,-0.34233 -0.38626,-0.66898 -0.614468,-0.98077 -0.228471,-0.34519 -0.365612,-0.74157 -0.587312,-1.0917 -0.2125,-0.31884 -0.479909,-0.57165 -0.768739,-0.82118 -0.282861,-0.2478 -0.602969,-0.44957 -0.92193,-0.64927 -0.27981,-0.16229 -0.543502,-0.35631 -0.87195,-0.41868 -0.318842,-0.10213 -0.646322,-0.18361 -0.976691,-0.24551 -0.283491,-0.0258 -0.558959,0.006 -0.84114,0.0561 -0.283829,0.0347 -0.52815,0.1237 -0.78255,0.26589 -0.26698,0.12356 -0.533479,0.24818 -0.800129,0.37247 -0.27255,0.128 -0.546171,0.25352 -0.819131,0.38059 -0.27327,0.12946 -0.548169,0.25518 -0.82187,0.38368 -0.273601,0.12621 -0.546809,0.25339 -0.819158,0.38243 -0.366041,0.17265 -0.734182,0.3406 -1.099812,0.5142 -0.425231,0.19783 -0.85048,0.39564 -1.27598,0.59285 -0.35497,0.16418 -0.710009,0.32822 -1.064641,0.49328 -0.299439,0.14166 -0.600699,0.27924 -0.90047,0.42022 -0.26203,0.12089 -0.522038,0.24753 -0.791569,0.34968 -0.290039,0.10077 -0.592051,0.1854 -0.897359,0.1781 -0.260201,-0.0117 -0.524031,0.002 -0.784492,-0.002 -0.243297,0.004 -0.499819,-0.01 -0.724458,-0.0963 -0.37809,-0.17651 -0.740079,-0.38538 -1.13783,-0.5213 -0.542761,-0.27744 -1.16758,-0.52632 -1.378051,-1.1434 -0.218379,-0.50147 -0.4397,-1.00185 -0.640569,-1.51124 -0.159811,-0.42325 -0.298881,-0.85585 -0.366601,-1.30807 -0.0621,-0.53467 -0.13456,-1.07165 -0.0971,-1.6151 0.01889,-0.69721 0.0293,-1.39565 0.11757,-2.09148 0.13557,-1.2115 0.41715,-3.32419 -0.28022,2.17316 -0.0186,0.14608 0.02339,-0.29328 0.0464,-0.43889 0.0491,-0.31191 0.14601,-0.61708 0.187762,-0.93016 0.233629,-1.018 0.47897,-2.03861 0.849788,-3.02185 0.0734,-0.21414 0.32983,-1.06416 0.491739,-1.22509 0.17141,-0.1703 0.763842,-0.28914 0.96756,-0.45606 0.698421,-0.32736 1.393502,-0.6633 2.103951,-0.96204 0.834282,-0.33909 1.688521,-0.62249 2.5772,-0.74136 1.141961,-0.14361 2.292602,-0.27451 3.438451,-0.28274 1.196959,0.0207 2.390828,0.0652 3.570298,0.24135 0.509471,0.0508 1.253832,0.18793 1.76285,0.0762 0.386033,-0.0846 0.951201,-0.51792 1.34856,-0.62659 0.947701,-0.44148 1.898873,-0.8759 2.835273,-1.34269 0.771437,-0.4015 1.516949,-0.85363 2.151028,-1.46196 0.735721,-0.68336 1.44331,-1.38905 2.039451,-2.20033 0.62109,-0.82059 1.125399,-1.71503 1.51889,-2.66045 0.395021,-0.91005 0.681419,-1.85168 0.8372,-2.82396 0.32453,-2.13937 0.64733,-4.28483 0.622901,-6.43667 -0.007,-1.10654 -0.0336,-2.21357 -0.163592,-3.30847 -0.11793,-1.29486 -0.17703,-2.60119 -0.478049,-3.86452 -0.136131,-0.60214 -0.208391,-1.00961 -0.42227,-1.59196 -0.381399,-1.03851 -0.93078,-2.00948 -1.348459,-3.03172 -0.613231,-1.30739 -1.223382,-2.63656 -2.133403,-3.76214 -0.72286,-0.85546 -1.522971,-1.62786 -2.402279,-2.32448 -0.752041,-0.62206 -1.53076,-1.21239 -2.33521,-1.76715 -0.724022,-0.49367 -1.460791,-0.96986 -2.247421,-1.3648 -0.80827,-0.36777 -1.653479,-0.6569 -2.518151,-0.88018 -0.812908,-0.19007 -1.630849,-0.35729 -2.442059,-0.55224 -0.538239,-0.17043 -1.503349,-0.6376 -2.054839,-0.57298 -0.0899,0.0105 -0.166071,0.0776 -0.248991,0.1166 -0.544769,0.25465 -1.090049,0.5081 -1.63521,0.76185 -0.58398,0.27189 -1.170019,0.53892 -1.754431,0.80981 -0.500829,0.24222 -1.000588,0.49235 -1.45914,0.8132 -0.584358,0.45236 -1.130588,0.94508 -1.680728,1.43843 -0.746221,0.6603 -1.40439,1.40583 -2.06732,2.14773 -0.660101,0.77688 -1.31572,1.55661 -1.982451,2.3282 -0.776616,0.85097 -1.531676,1.722 -2.291405,2.58773 -0.791652,0.91133 -1.596451,1.81167 -2.415802,2.69845 -0.849009,0.83272 -1.649061,1.72026 -2.416541,2.62662 -0.328138,0.4492 -0.630679,0.90406 -0.934899,1.36861 -0.0806,0.12291 -0.482,0.72699 -0.61603,0.83247 -0.125359,0.0991 -0.288261,0.13489 -0.43239,0.20233 -0.781759,0.35933 -1.561071,0.72437 -2.34121,1.08748 -0.60917,0.2847 -1.2189,0.56964 -1.84064,0.82367 -0.48757,0.18363 -0.98454,0.3557 -1.50494,0.3029 -0.43964,-0.0421 -0.88099,-0.0812 -1.28773,-0.25449 -0.49876,-0.20089 -0.9955,-0.40881 -1.5225,-0.53569 -0.51736,-0.15792 -1.13466,-0.22956 -1.33654,-0.78692 -0.22269,-0.5124 -0.44891,-1.02313 -0.67289,-1.5349 -0.35519,-0.8173 -0.71798,-1.63116 -1.05799,-2.45543 0,0 -0.78637,3.4278 -0.78637,3.4278 z"
       inkscape:connector-curvature="0"
       inkscape:export-filename="/home/max/ownCloud/SS18/BA/Vortrag/Bilder/Skizze_NN_Kette.png"
       inkscape:export-xdpi="300"
       inkscape:export-ydpi="300" />
    <path
       style="fill:none;stroke:#000000;stroke-width:0.39399999;stroke-linecap:square;stroke-linejoin:miter;stroke-miterlimit:4;stroke-dasharray:none;stroke-opacity:1;marker-start:url(#marker4925-8);marker-end:url(#marker4932-8)"
       d="m 82.512402,241.37961 -0.514868,-6.66203"
       id="path4574-4"
       inkscape:connector-curvature="0"
       inkscape:export-xdpi="300"
       inkscape:export-ydpi="300"
       inkscape:export-filename="/home/max/ownCloud/SS18/BA/Vortrag/Bilder/Skizze_NN_Kette.png" />
    <text
       xml:space="preserve"
       style="font-style:normal;font-variant:normal;font-weight:normal;font-stretch:normal;font-size:6.21091652px;line-height:1.25;font-family:'Open Sans';-inkscape-font-specification:'Open Sans, Normal';font-variant-ligatures:normal;font-variant-caps:normal;font-variant-numeric:normal;font-feature-settings:normal;text-align:start;letter-spacing:0px;word-spacing:0px;writing-mode:lr-tb;text-anchor:start;fill:#000000;fill-opacity:1;stroke:none;stroke-width:0.15527183"
       x="77.602737"
       y="264.53314"
       id="text7634-5"
       transform="scale(1.1080582,0.90247967)"
       inkscape:export-xdpi="300"
       inkscape:export-ydpi="300"
       inkscape:export-filename="/home/max/ownCloud/SS18/BA/Vortrag/Bilder/Skizze_NN_Kette.png"><tspan
         sodipodi:role="line"
         id="tspan7636-6"
         x="77.602737"
         y="264.53314"
         style="font-style:normal;font-variant:normal;font-weight:normal;font-stretch:normal;font-size:6.21091652px;font-family:'Open Sans';-inkscape-font-specification:'Open Sans, Normal';font-variant-ligatures:normal;font-variant-caps:normal;font-variant-numeric:normal;font-feature-settings:normal;text-align:start;writing-mode:lr-tb;text-anchor:start;stroke-width:0.15527183">ε<tspan
   style="font-size:65%;baseline-shift:sub"
   id="tspan903">pp</tspan>&lt;0</tspan></text>
    <path
       style="fill:#000000;stroke-width:0.39399999;stroke-linecap:square;stroke-miterlimit:4;stroke-dasharray:none"
       id="path5388"
       d="m 150.26154,181.83724 c 1.92124,0.0431 3.84326,0.0408 5.7649,0.0416 0.41794,2.3e-4 0.83589,8e-4 1.25383,8e-4 0.40206,-2.3e-4 0.80443,-0.0182 1.20616,-0.002 1.07717,0.0432 2.17793,0.21059 3.2203,0.48785 0.30003,0.0798 0.59164,0.18842 0.88747,0.28262 1.08929,0.41303 2.10113,1.00685 2.95385,1.80546 0.51866,0.48576 0.67561,0.72691 1.11345,1.28124 0.58449,0.86887 1.02454,1.83134 1.27522,2.8495 0.13483,0.54762 0.16524,0.87884 0.241,1.43441 0.14561,1.3831 0.12959,2.77653 0.12679,4.16535 -0.22404,1.37703 -0.97866,2.5803 -1.61806,3.79755 -0.57203,1.15302 -1.15863,2.29733 -1.81834,3.40292 -0.91604,1.49098 -2.05252,2.81662 -3.26283,4.07286 -1.17495,1.17522 -2.51108,2.1606 -3.8574,3.12628 -0.87573,0.63923 -1.71892,1.31936 -2.52833,2.04031 -0.60871,0.55155 -1.13454,1.17517 -1.59793,1.85104 -0.42771,0.5869 -0.71253,1.25507 -1.02432,1.90605 -0.29829,0.56905 -0.43711,1.18284 -0.50364,1.81614 -0.0574,0.77475 -0.0492,1.55263 -0.0511,2.329 0.24855,1.08204 0.94546,1.97837 1.57879,2.86485 0.65,0.79853 1.20717,1.65553 1.70488,2.55491 0.36768,0.72248 0.60949,1.50047 0.77069,2.29274 0.10556,0.62208 0.11741,1.25448 0.12341,1.88385 -0.0394,0.28677 0.056,0.60191 -8e-4,0.88623 -0.0935,0.46891 -0.4175,0.7673 -0.74048,1.08824 -0.52654,0.46797 -1.10644,0.87035 -1.71908,1.21696 -2.8698,1.62364 -1.83642,1.1783 -3.28266,1.77071 -0.86476,0.30853 -1.78168,0.44373 -2.68944,0.55943 -0.76371,0.0923 -1.53406,0.10352 -2.30237,0.10904 -0.73243,0.004 -1.46486,0.002 -2.19728,5.3e-4 -0.47634,-0.11568 -0.88333,-0.39714 -1.32602,-0.59383 -0.37266,-0.14773 -0.19201,-0.0698 -0.54244,-0.2327 -0.41003,-0.13923 -0.81961,-0.29041 -1.23859,-0.40175 -0.3314,-0.0746 -0.67227,-0.0842 -1.01052,-0.0902 -0.30563,-0.003 -0.61126,1.8e-4 -0.9169,0.001 -0.18743,0.0362 -0.72988,-0.0534 -0.86984,-2.7e-4 -0.0675,0.0256 -0.11275,0.0901 -0.16912,0.13517 4.06456,-2.7007 1.9123,-0.99676 0.99716,-0.32093 -0.48439,0.33533 -0.94352,0.70555 -1.43171,1.03519 -0.45247,0.30016 -0.88795,0.62695 -1.29546,0.98581 -0.43929,0.38344 -0.77897,0.85894 -1.12804,1.32143 -0.31267,0.45084 -0.5947,0.92181 -0.83864,1.4131 -0.2072,0.35032 -0.2892,0.73466 -0.33267,1.13366 -0.0329,0.46494 -0.0291,0.93146 -0.0272,1.39725 0.001,0.42666 0.006,0.85333 0.005,1.27999 0.0475,0.17906 -0.0559,0.40833 0.001,0.58321 0.0617,0.18935 0.40587,0.36507 0.55066,0.46799 0.45102,0.2987 0.87319,0.6383 1.28763,0.98545 0.3406,0.31383 0.74499,0.55447 1.1605,0.7547 0.39305,0.20855 0.81727,0.35949 1.24351,0.48551 0.38725,0.0923 0.78444,0.10456 1.18039,0.11178 0.32543,0.004 0.65084,-7.9e-4 0.97627,-0.002 0.30209,-5.2e-4 0.60418,-0.002 0.90628,-0.001 0.35074,5.3e-4 0.70148,0.001 1.05223,0.001 0.2173,-0.0421 0.67311,0.0609 0.86521,0.001 0.0765,-0.0237 0.1327,-0.09 0.2021,-0.13008 0.0821,-0.0474 0.16803,-0.0879 0.25205,-0.1319 0.54215,-0.26401 1.10985,-0.467 1.70242,-0.58024 0.53467,-0.0848 1.07565,-0.0999 1.6158,-0.10689 0.40754,-0.003 0.81509,1.5e-4 1.22263,0.002 0.37755,0.001 0.75511,0.001 1.13267,0.002 0.37748,1e-4 0.75497,8e-5 1.13245,7e-5 0.25908,-8e-4 0.51816,7.9e-4 0.77723,7.9e-4 0.0661,6e-5 0.13406,-0.0159 0.19837,-5.3e-4 0.0836,0.02 0.15715,0.0695 0.23572,0.10431 0.41368,0.27552 0.82763,0.5483 1.25106,0.80989 0.31335,0.2066 0.633,0.40297 0.9534,0.59801 0.27573,0.18988 0.53927,0.41016 0.72298,0.69286 0.17251,0.22133 0.31251,0.46691 0.41872,0.72635 0.15417,0.36825 0.23338,0.75326 0.27428,1.14839 0.0386,0.5615 0.0376,1.12475 0.0373,1.68728 1.6e-4,0.0999 0.0199,0.20166 5.3e-4,0.29965 -0.12543,0.63403 -0.74205,1.09596 -1.17288,1.52868 -0.47627,0.47587 -0.86853,1.02258 -1.28211,1.55115 -0.43044,0.55559 -0.84451,1.12227 -1.29809,1.65947 -0.45435,0.49275 -0.86145,1.0244 -1.26945,1.55514 -0.33776,0.38603 -0.60425,0.81993 -0.84487,1.27052 -0.20851,0.36832 -0.43883,0.72374 -0.59438,1.11859 -0.12677,0.37731 -0.28982,0.74105 -0.40363,1.12255 -0.13321,0.40687 -0.22392,0.82109 -0.27304,1.2459 -0.0391,0.39865 -0.0394,0.79958 -0.041,1.19972 0.002,0.31784 0.001,0.63572 0.004,0.95355 0.003,0.25807 2e-4,0.51616 0.002,0.77425 -3e-5,0.0433 -0.0215,0.0923 -9e-5,0.12988 0.0167,0.0293 0.0652,0.0192 0.0945,0.0359 0.0715,0.0407 0.13534,0.0938 0.20626,0.1355 0.25859,0.15202 0.52055,0.26567 0.77105,0.43372 0.4388,0.30916 0.83954,0.65897 1.23644,1.01796 0.3111,0.26667 0.60618,0.55308 0.92431,0.8111 0.30332,0.18889 0.56565,0.43075 0.87385,0.61355 0.30083,0.17258 0.62902,0.27183 0.94757,0.39997 0.3247,0.0936 0.64609,0.17801 0.95165,0.32541 0.34963,0.11877 0.68045,0.2712 1.00926,0.43714 0.34194,0.2014 0.66419,0.42188 0.92685,0.72134 0.25731,0.24294 0.4916,0.47799 0.63034,0.80713 0.13417,0.24895 0.22518,0.50872 0.27111,0.78698 0.0378,0.24829 0.0393,0.49964 0.0425,0.75012 -0.001,0.27567 -0.003,0.55131 -0.003,0.82701 -1e-4,0.0236 -7.9e-4,0.3179 -0.003,0.32351 -0.13946,0.45339 -0.62877,0.68947 -0.9966,0.93308 -0.5292,0.33181 -1.02963,0.70225 -1.4866,1.12776 -0.9986,0.88918 -2.16489,1.71248 -3.44894,2.08825 -0.36965,0.084 -0.7368,0.17322 -1.11464,0.215 -0.5763,0.0528 -1.15616,0.0482 -1.73435,0.0507 -0.88055,0 -1.7611,-0.005 -2.64165,-0.005 -0.62833,-2e-5 -1.25667,2.7e-4 -1.88501,0 -0.16263,-1.8e-4 -0.32626,0.0175 -0.4879,0 -0.17565,-0.0196 -0.34559,-0.0743 -0.51839,-0.11139 -0.18267,-0.0531 -0.36776,-0.0985 -0.54802,-0.15936 -0.71613,-0.24156 -1.4159,-0.54038 -2.1254,-0.80057 -0.56095,-0.20574 -1.12555,-0.40138 -1.68745,-0.6045 -1.63408,-0.59369 -3.25251,-1.2234 -4.82522,-1.96561 -1.18182,-0.56804 -2.29964,-1.24944 -3.37504,-1.99668 -1.23225,-0.92517 -2.3637,-1.98078 -3.47096,-3.05038 -1.14278,-1.06966 -2.11923,-2.28433 -2.97155,-3.59251 -0.75893,-1.30819 -1.17911,-2.76472 -1.64747,-4.19197 -0.5637,-1.82776 -1.59591,-3.43367 -2.63631,-5.01781 -0.79849,-1.25159 -1.60401,-2.53714 -2.11246,-3.94071 -0.0937,-0.25858 -0.16596,-0.52441 -0.24894,-0.78662 -0.43831,-1.78233 -0.5026,-3.6275 -0.6204,-5.45131 -0.12003,-1.87899 -0.19334,-3.76046 -0.22882,-5.64283 0.0192,-1.19115 -0.15251,-2.36578 0.17938,-3.53033 0.23309,-0.81786 0.48481,-1.22892 0.86578,-1.98966 1.25002,-2.13929 2.80078,-4.078 4.2205,-6.10329 1.2776,-1.80957 2.4049,-3.71457 3.4542,-5.66329 0.99419,-1.82755 2.02304,-3.63428 2.98089,-5.48138 0.46801,-0.93588 0.95821,-1.87019 1.25906,-2.87709 0.15954,-0.53397 0.17692,-0.7148 0.27512,-1.25772 0.18304,-1.31633 0.17398,-2.6495 0.17627,-3.97563 -0.001,-1.19648 -0.0172,-2.39288 -0.028,-3.5893 -0.23047,-0.90192 -0.73933,-1.68863 -1.0282,-2.57193 -0.0358,-0.12685 -0.0716,-0.25369 -0.10743,-0.38054 0,0 2.4444,-1.32741 2.4444,-1.32741 v 0 c 0.0316,0.12405 0.0632,0.24809 0.0948,0.37213 0.28816,0.91389 0.80746,1.72478 1.06312,2.64984 -0.002,1.20168 -0.004,2.40336 -2.6e-4,3.60503 2e-4,1.33811 0.0268,2.68302 -0.14583,4.01297 -0.0885,0.52933 -0.11514,0.77713 -0.26315,1.29809 -0.29281,1.03062 -0.79553,1.98177 -1.27751,2.93255 -0.96722,1.84517 -1.98284,3.66267 -2.9874,5.4877 -1.04849,1.96427 -2.18087,3.88142 -3.46483,5.70278 -1.41139,2.01744 -2.94981,3.94862 -4.21929,6.06214 -0.38076,0.73128 -0.6328,1.13348 -0.87878,1.91802 -0.0939,0.29933 -0.17517,0.60556 -0.2105,0.91727 -0.0334,0.29496 0.003,0.5937 0.006,0.89055 0.004,0.59565 0.009,1.06517 0.0138,1.6595 0.0271,1.88157 0.0702,3.76349 0.20265,5.64114 0.12319,1.80059 0.196,3.62006 0.6131,5.38287 0.0785,0.25617 0.14611,0.51591 0.23535,0.76852 0.49165,1.39162 1.28569,2.66396 2.07165,3.90302 1.04775,1.60604 2.09448,3.22937 2.68376,5.07141 0.47245,1.4004 0.89466,2.82984 1.632,4.12098 0.83526,1.29343 1.79033,2.49771 2.91995,3.55057 1.10448,1.05923 2.23597,2.09912 3.48182,2.9918 1.06161,0.73364 2.15616,1.41864 3.32196,1.97715 1.56402,0.73739 3.1752,1.36089 4.7999,1.95128 1.45144,0.51908 2.89274,1.08844 4.37925,1.49598 0.94864,0.13396 1.91043,0.0433 2.86648,0.0703 0.88522,0 1.77047,0 2.65565,-0.008 0.57561,-0.007 1.15395,-0.01 1.72504,-0.0904 0.36501,-0.0648 0.73152,-0.14171 1.08138,-0.26564 0.95037,-0.44181 0.20379,-0.1011 -2.05702,1.2183 -0.0591,0.0345 0.121,-0.0644 0.17832,-0.10176 0.12041,-0.0785 0.23714,-0.16309 0.34855,-0.25395 0.0612,-0.0499 0.1168,-0.10634 0.17521,-0.15952 0.47083,-0.42307 0.93341,-0.8541 1.48519,-1.17602 0.288,-0.18536 0.57124,-0.40182 0.86601,-0.57412 0.0689,-0.0403 0.1697,-0.0329 0.21976,-0.0951 0.0672,-0.0835 -0.0594,-0.23405 -0.002,-0.32155 5.3e-4,-0.27472 0.002,-0.54944 8e-4,-0.82413 0.001,-0.23892 0.001,-0.4785 -0.0214,-0.71651 -0.0315,-0.25946 -0.11031,-0.4989 -0.23778,-0.72861 -0.1135,-0.30097 -0.36076,-0.49409 -0.57617,-0.72422 -0.24819,-0.26551 -0.55529,-0.46067 -0.87362,-0.6332 -0.32366,-0.16558 -0.6648,-0.28528 -1.00049,-0.42355 -0.30975,-0.1207 -0.63112,-0.2005 -0.94369,-0.31303 -0.33932,-0.11877 -0.66297,-0.27074 -0.97612,-0.44791 -0.30846,-0.20198 -0.59288,-0.43521 -0.8944,-0.64701 -0.31269,-0.27093 -0.62063,-0.54737 -0.92791,-0.82442 -0.3776,-0.3556 -0.77518,-0.68482 -1.20083,-0.98269 -0.39178,-0.23971 -0.98205,-0.42071 -1.23201,-0.83637 -0.0223,-0.0371 -8e-5,-0.0865 -1.2e-4,-0.12975 0.001,-0.2582 -0.002,-0.51641 2.6e-4,-0.77461 0.002,-0.31922 -0.002,-0.63845 5.3e-4,-0.95768 0.001,-0.4089 0.004,-0.81828 0.0316,-1.22638 0.0401,-0.43689 0.10496,-0.86914 0.25146,-1.28474 0.0941,-0.39436 0.25546,-0.76181 0.39547,-1.14106 0.12716,-0.4191 0.34181,-0.79443 0.57836,-1.16149 0.25067,-0.45748 0.4785,-0.9322 0.83882,-1.3181 0.41506,-0.52903 0.8039,-1.08022 1.26748,-1.56929 0.46198,-0.52841 0.88217,-1.08713 1.30467,-1.64705 0.41195,-0.53626 0.80372,-1.08849 1.27118,-1.57913 0.26497,-0.28343 0.55242,-0.53652 0.81917,-0.81845 0.0535,-0.0565 0.40018,-0.40881 0.43537,-0.51224 0.0322,-0.0945 2.6e-4,-0.19969 5.3e-4,-0.29954 -0.002,-0.55288 5.3e-4,-1.10644 -0.035,-1.65845 -0.0338,-0.3692 -0.0937,-0.73304 -0.24771,-1.07401 -0.0924,-0.24612 -0.23308,-0.46709 -0.39131,-0.67625 -0.16282,-0.24834 -0.40837,-0.43169 -0.65438,-0.5921 -0.31487,-0.20315 -0.64066,-0.38854 -0.94943,-0.60123 -0.39927,-0.25648 -0.78683,-0.53971 -1.21028,-0.75184 -0.38444,-0.0638 -0.7767,-0.0176 -1.16516,-0.0309 -0.37753,0 -0.75507,4e-5 -1.1326,-1.7e-4 -0.37763,-2.7e-4 -0.75526,-8e-4 -1.13289,-0.003 -0.40481,-0.002 -0.80966,-0.005 -1.21446,1e-5 -0.52768,0.0117 -1.05749,0.0354 -1.57521,0.1469 -0.57703,0.14702 -1.13142,0.36476 -1.66418,0.63104 -0.0899,0.0393 -0.17613,0.0884 -0.26975,0.11775 -0.36547,0.11454 -0.76212,0.0207 -1.13663,0.052 -0.35184,1.9e-4 -0.70369,5.3e-4 -1.05554,0.002 -0.30212,0.001 -0.60424,7.9e-4 -0.90637,0.003 -0.32594,0.001 -0.65202,0.002 -0.97781,-0.01 -0.41288,-0.0198 -0.82604,-0.0508 -1.2229,-0.17645 -0.43292,-0.14786 -0.86548,-0.30286 -1.26655,-0.52582 -0.42322,-0.22928 -0.84074,-0.47541 -1.19328,-0.80721 -0.41121,-0.34073 -0.82327,-0.68143 -1.27021,-0.97501 -0.24847,-0.18537 -0.56648,-0.38956 -0.6929,-0.68993 -0.0695,-0.1651 0.05,-0.41164 1.4e-4,-0.58348 -0.002,-0.42698 -1.6e-4,-0.85396 -0.002,-1.28095 -2.7e-4,-0.47262 -0.006,-0.94557 0.0149,-1.41787 0.0251,-0.42354 0.0744,-0.85698 0.28943,-1.23166 0.25411,-0.50124 0.52114,-0.99077 0.8259,-1.46427 0.35634,-0.4638 0.67904,-0.95935 1.10369,-1.36532 0.39722,-0.37805 0.82967,-0.71517 1.28093,-1.02688 0.49457,-0.32257 0.95965,-0.68036 1.43798,-1.02725 1.27384,-0.88066 2.1548,-1.96618 3.79956,-2.44611 0.36904,-0.0697 0.74235,-0.0438 1.11709,-0.0493 0.30751,-0.001 0.61516,-0.002 0.92254,0.008 0.35281,0.0184 0.70752,0.0469 1.04749,0.14979 0.42147,0.13378 0.84432,0.26974 1.25105,0.44361 0.58463,0.26837 1.15491,0.61446 1.79057,0.73412 0.73094,0.001 1.4619,0.004 2.19282,-0.002 0.76039,-0.0126 1.52229,-0.0301 2.27704,-0.13252 0.89373,-0.12701 1.79671,-0.2667 2.63631,-0.6128 1.15769,-0.51468 0.49395,-0.24063 -1.46716,0.93538 -0.15036,0.0902 0.30665,-0.17013 0.45752,-0.25945 0.3768,-0.22307 0.52724,-0.32048 0.876,-0.58271 0.13632,-0.1025 0.26774,-0.21136 0.40161,-0.31704 0.20596,-0.17379 0.72507,-0.59549 0.81436,-0.86973 0.0759,-0.23315 -0.0574,-0.63609 0.001,-0.88314 -0.004,-0.61458 -0.005,-1.23193 -0.0957,-1.84126 -0.13743,-0.76937 -0.36377,-1.52361 -0.71142,-2.22567 -0.48874,-0.89186 -1.04113,-1.73931 -1.67756,-2.53435 -0.66182,-0.93793 -1.37437,-1.8796 -1.677,-3.0053 -0.004,-0.78179 -0.0129,-1.56426 0.0244,-2.34544 0.0562,-0.66125 0.16282,-1.30916 0.46541,-1.90933 0.32636,-0.65224 0.58414,-1.34397 1.01129,-1.94092 0.45555,-0.70044 0.97255,-1.34672 1.58348,-1.92015 0.81218,-0.73783 1.66214,-1.4294 2.54542,-2.08079 1.35582,-0.96067 2.71108,-1.92807 3.90381,-3.09236 1.21025,-1.22983 2.34715,-2.52897 3.25661,-4.00233 0.66957,-1.09551 1.25377,-2.23849 1.82445,-3.38812 0.20983,-0.39708 0.41328,-0.79752 0.62322,-1.19455 0.42164,-0.79742 0.88421,-1.58587 1.05469,-2.48496 0.003,-1.37835 0.0195,-2.76016 -0.10821,-4.13417 -0.1932,-1.5432 -0.53142,-2.85948 -1.42955,-4.16357 -0.42029,-0.52872 -0.58215,-0.7743 -1.08147,-1.23426 -0.83458,-0.76879 -1.82829,-1.331 -2.88896,-1.72233 -0.9529,-0.2959 -1.89592,-0.5296 -2.89115,-0.64182 -0.98832,-0.11144 -1.33448,-0.0855 -2.33809,-0.0861 -0.41855,-2.4e-4 -0.8371,5.3e-4 -1.25565,5.3e-4 -1.95979,7.9e-4 -3.91991,-5.3e-4 -5.87933,0.0416 0,0 2.27092,-1.64992 2.27092,-1.64992 z"
       inkscape:connector-curvature="0"
       inkscape:export-filename="/home/max/ownCloud/SS18/BA/Vortrag/Bilder/Skizze_CNS.png"
       inkscape:export-xdpi="300"
       inkscape:export-ydpi="300" />
    <path
       style="fill:none;stroke:#000000;stroke-width:0.41252482;stroke-linecap:square;stroke-linejoin:miter;stroke-miterlimit:4;stroke-dasharray:none;stroke-opacity:1;marker-start:url(#marker4925-8-3);marker-end:url(#marker4932-8-7)"
       d="m 150.1501,242.80594 -0.44331,-8.48211"
       id="path4574-4-2"
       inkscape:connector-curvature="0"
       inkscape:export-xdpi="300"
       inkscape:export-ydpi="300"
       inkscape:export-filename="/home/max/ownCloud/SS18/BA/Vortrag/Bilder/Skizze_CNS.png" />
    <text
       xml:space="preserve"
       style="font-style:normal;font-variant:normal;font-weight:normal;font-stretch:normal;font-size:6.21091652px;line-height:1.25;font-family:'Open Sans';-inkscape-font-specification:'Open Sans, Normal';font-variant-ligatures:normal;font-variant-caps:normal;font-variant-numeric:normal;font-feature-settings:normal;text-align:start;letter-spacing:0px;word-spacing:0px;writing-mode:lr-tb;text-anchor:start;fill:#000000;fill-opacity:1;stroke:none;stroke-width:0.15527183"
       x="137.14165"
       y="265.77533"
       id="text7634-5-4"
       transform="scale(1.1080582,0.90247967)"
       inkscape:export-xdpi="300"
       inkscape:export-ydpi="300"
       inkscape:export-filename="/home/max/ownCloud/SS18/BA/Vortrag/Bilder/Skizze_CNS.png"><tspan
         sodipodi:role="line"
         id="tspan7636-6-5"
         x="137.14165"
         y="265.77533"
         style="font-style:normal;font-variant:normal;font-weight:normal;font-stretch:normal;font-size:6.21091652px;font-family:'Open Sans';-inkscape-font-specification:'Open Sans, Normal';font-variant-ligatures:normal;font-variant-caps:normal;font-variant-numeric:normal;font-feature-settings:normal;text-align:start;writing-mode:lr-tb;text-anchor:start;stroke-width:0.15527183">ε<tspan
   style="font-size:65%;baseline-shift:sub"
   id="tspan899">pp</tspan>=0</tspan></text>
    <ellipse
       id="path14-7-0"
       cx="164.04167"
       cy="200.99405"
       rx="2.0788691"
       ry="2.1733632"
       style="fill:#ff2a2a;stroke-width:0.26458332"
       inkscape:export-xdpi="300"
       inkscape:export-ydpi="300"
       inkscape:export-filename="/home/max/ownCloud/SS18/BA/Vortrag/Bilder/Skizze_CNS.png" />
    <ellipse
       id="path14-7-5"
       cx="126.62202"
       cy="221.02678"
       rx="2.0788691"
       ry="2.1733632"
       style="fill:#ff2a2a;stroke-width:0.26458332"
       inkscape:export-xdpi="300"
       inkscape:export-ydpi="300"
       inkscape:export-filename="/home/max/ownCloud/SS18/BA/Vortrag/Bilder/Skizze_CNS.png" />
    <ellipse
       id="path14-7-3"
       cx="138.52827"
       cy="195.5134"
       rx="2.0788691"
       ry="2.1733632"
       style="fill:#ff2a2a;stroke-width:0.26458332"
       inkscape:export-xdpi="300"
       inkscape:export-ydpi="300"
       inkscape:export-filename="/home/max/ownCloud/SS18/BA/Vortrag/Bilder/Skizze_CNS.png" />
    <ellipse
       id="path14-7-2"
       cx="152.5134"
       cy="194.37947"
       rx="2.0788691"
       ry="2.1733632"
       style="fill:#ff2a2a;stroke-width:0.26458332"
       inkscape:export-xdpi="300"
       inkscape:export-ydpi="300"
       inkscape:export-filename="/home/max/ownCloud/SS18/BA/Vortrag/Bilder/Skizze_CNS.png" />
    <ellipse
       id="path14-7-72"
       cx="137.20535"
       cy="226.31845"
       rx="2.0788691"
       ry="2.1733632"
       style="fill:#ff2a2a;stroke-width:0.26458332"
       inkscape:export-xdpi="300"
       inkscape:export-ydpi="300"
       inkscape:export-filename="/home/max/ownCloud/SS18/BA/Vortrag/Bilder/Skizze_CNS.png" />
    <ellipse
       id="path14-7-1"
       cx="128.32292"
       cy="260.90326"
       rx="2.0788691"
       ry="2.1733632"
       style="fill:#ff2a2a;stroke-width:0.26458332"
       inkscape:export-xdpi="300"
       inkscape:export-ydpi="300"
       inkscape:export-filename="/home/max/ownCloud/SS18/BA/Vortrag/Bilder/Skizze_CNS.png" />
    <ellipse
       id="path14-7-34"
       cx="131.7247"
       cy="278.85715"
       rx="2.0788691"
       ry="2.1733632"
       style="fill:#ff2a2a;stroke-width:0.26458332"
       inkscape:export-xdpi="300"
       inkscape:export-ydpi="300"
       inkscape:export-filename="/home/max/ownCloud/SS18/BA/Vortrag/Bilder/Skizze_CNS.png" />
    <ellipse
       id="path14-7-9"
       cx="116.22768"
       cy="250.13095"
       rx="2.0788691"
       ry="2.1733632"
       style="fill:#ff2a2a;stroke-width:0.26458332"
       inkscape:export-xdpi="300"
       inkscape:export-ydpi="300"
       inkscape:export-filename="/home/max/ownCloud/SS18/BA/Vortrag/Bilder/Skizze_CNS.png" />
    <ellipse
       id="path14-7-4"
       cx="124.35416"
       cy="239.54762"
       rx="2.0788691"
       ry="2.1733632"
       style="fill:#ff2a2a;stroke-width:0.26458332"
       inkscape:export-xdpi="300"
       inkscape:export-ydpi="300"
       inkscape:export-filename="/home/max/ownCloud/SS18/BA/Vortrag/Bilder/Skizze_CNS.png" />
    <ellipse
       id="path14-7-19"
       cx="144.76488"
       cy="256.55655"
       rx="2.0788691"
       ry="2.1733632"
       style="fill:#ff2a2a;stroke-width:0.26458332"
       inkscape:export-xdpi="300"
       inkscape:export-ydpi="300"
       inkscape:export-filename="/home/max/ownCloud/SS18/BA/Vortrag/Bilder/Skizze_CNS.png" />
    <ellipse
       id="path14-7-57"
       cx="159.88393"
       cy="261.28125"
       rx="2.0788691"
       ry="2.1733632"
       style="fill:#ff2a2a;stroke-width:0.26458332"
       inkscape:export-xdpi="300"
       inkscape:export-ydpi="300"
       inkscape:export-filename="/home/max/ownCloud/SS18/BA/Vortrag/Bilder/Skizze_CNS.png" />
    <text
       xml:space="preserve"
       style="font-style:normal;font-variant:normal;font-weight:normal;font-stretch:normal;font-size:6.21091652px;line-height:1.25;font-family:'Open Sans';-inkscape-font-specification:'Open Sans, Normal';font-variant-ligatures:normal;font-variant-caps:normal;font-variant-numeric:normal;font-feature-settings:normal;text-align:start;letter-spacing:0px;word-spacing:0px;writing-mode:lr-tb;text-anchor:start;fill:#000000;fill-opacity:1;stroke:none;stroke-width:0.15527183"
       x="156.50989"
       y="238.54619"
       id="text7634-4"
       transform="scale(1.1080582,0.90247967)"
       inkscape:export-xdpi="300"
       inkscape:export-ydpi="300"
       inkscape:export-filename="/home/max/ownCloud/SS18/BA/Vortrag/Bilder/Skizze_CNS.png"><tspan
         sodipodi:role="line"
         id="tspan7636-1"
         x="156.50989"
         y="238.54619"
         style="font-style:normal;font-variant:normal;font-weight:normal;font-stretch:normal;font-size:6.21091652px;font-family:'Open Sans';-inkscape-font-specification:'Open Sans, Normal';font-variant-ligatures:normal;font-variant-caps:normal;font-variant-numeric:normal;font-feature-settings:normal;text-align:start;writing-mode:lr-tb;text-anchor:start;stroke-width:0.15527183">ε<tspan
   style="font-size:65%;baseline-shift:sub"
   id="tspan901">pc</tspan>&lt;0</tspan></text>
    <path
       style="fill:none;stroke:#000000;stroke-width:0.37639463;stroke-linecap:square;stroke-linejoin:miter;stroke-miterlimit:4;stroke-dasharray:none;stroke-opacity:1;marker-end:url(#Arrow1Mend-2)"
       d="m 174.57537,209.9539 -8.63946,-6.40205"
       id="path4574-1"
       inkscape:connector-curvature="0"
       inkscape:export-xdpi="300"
       inkscape:export-ydpi="300"
       inkscape:export-filename="/home/max/ownCloud/SS18/BA/Vortrag/Bilder/Skizze_CNS.png" />
  </g>
</svg>
